<svg width="182" height="165" viewBox="0 0 182 165" fill="none" xmlns="http://www.w3.org/2000/svg">
<path d="M96.7883 0.349289C93.3838 0.843399 80.7403 2.07159 75.0332 2.45277C71.7699 2.67865 64.1839 2.72099 62.079 2.53748C61.0053 2.43864 60.7652 2.36806 60.1012 1.93042C59.0841 1.23868 58.4484 1.06927 57.2476 1.13986C55.8491 1.23868 54.8037 1.76102 53.6312 2.93275C52.4869 4.09038 52.0631 4.93741 51.9643 6.20798C51.8936 7.29501 52.1055 9.94907 52.5011 12.5466C52.9249 15.356 53.0944 17.5724 52.9955 18.73C52.9249 19.4218 52.6423 20.6076 52.2185 21.9347C51.8371 23.0923 51.2014 25.1252 50.8059 26.4522C49.5203 30.6874 48.4326 33.0591 46.8786 34.9932C45.5225 36.7014 43.3328 38.2402 41.4116 38.8472C40.0272 39.2848 38.9536 39.3837 34.5602 39.5107C31.6077 39.5813 29.7006 39.7084 28.8812 39.8495C27.0024 40.1884 24.29 41.1342 22.1569 42.193C17.8624 44.3247 15.1218 46.5694 11.9857 50.5646C11.3076 51.4257 9.86667 53.2327 8.77892 54.588C5.44501 58.7385 4.9082 59.4444 4.41377 60.4749C3.53791 62.2396 3.45315 62.7478 3.41077 66.8277C3.38252 70.71 3.2695 71.7406 2.40777 75.7922C1.3624 80.6627 1.09399 82.3568 0.995103 84.8273C0.92447 86.4649 0.952723 86.9308 1.22113 88.1449C1.37652 88.9213 1.5743 89.8531 1.6308 90.2201C1.71557 90.7566 1.89921 91.053 2.53491 91.7448C3.76394 93.0577 5.68517 96.587 6.09484 98.267C6.15135 98.4788 6.44801 98.9446 6.74467 99.2834C7.53577 100.173 7.80417 101.373 8.07258 105.057C8.28448 108.064 8.48226 109.25 8.99082 110.634C9.92318 113.133 12.0281 116.027 14.1047 117.65C15.1359 118.455 16.8876 119.415 17.3397 119.415C17.4951 119.415 17.6505 119.612 17.7635 119.937C17.9895 120.629 18.3568 121.222 19.713 123.001C21.3658 125.175 21.606 125.965 21.8461 130.214C21.9309 131.683 22.0298 133.024 22.0863 133.165C22.2558 133.744 26.1689 138.473 28.7258 141.198C30.2656 142.835 30.5199 142.977 32.3281 143.089C33.5572 143.174 33.5713 143.174 34.3765 143.866C34.8286 144.247 35.8598 144.981 36.6509 145.504C42.3722 149.202 43.46 150.049 43.46 150.798C43.46 151.362 43.7566 151.997 44.4065 152.816C45.1552 153.748 45.4518 154.327 45.5649 155.089L45.6496 155.724L46.6385 156.035C47.6556 156.374 48.7716 156.854 52.713 158.703C56.1034 160.284 57.8268 160.778 59.9882 160.778C61.4715 160.778 61.9801 160.637 63.0537 159.946C64.198 159.211 64.4381 159.155 65.088 159.451L65.6389 159.691L66.0344 159.324C66.3876 158.986 66.543 158.943 67.3482 158.943C69.2695 158.943 70.4702 159.578 72.01 161.428C73.9737 163.785 74.5105 164.138 76.7284 164.618C78.3529 164.957 81.9411 165.084 86.052 164.943L89.1599 164.844L90.5725 163.461C92.296 161.781 92.9317 161.498 95.1072 161.386C97.4805 161.258 100.193 161.809 102.368 162.868C102.948 163.15 103.484 163.362 103.555 163.334C103.64 163.32 105.547 163.249 107.793 163.178C112.186 163.037 113.062 162.938 114.786 162.402C116.198 161.95 117.23 161.258 118.897 159.649C120.465 158.124 121.284 157.56 122.64 157.08C124.491 156.402 125.748 156.19 127.796 156.204C129.506 156.204 129.817 156.247 130.805 156.586L131.921 156.967L133.489 156.063C135.665 154.807 137.982 153.72 140.157 152.929C142.46 152.11 143.195 151.729 144 150.995C144.833 150.233 145.003 149.866 145.229 148.327C145.342 147.607 145.483 146.887 145.54 146.732C145.794 146.012 146.74 145.009 148.252 143.809C149.156 143.089 150.625 141.819 151.501 140.972C153.38 139.165 154.256 138.671 155.315 138.812C157.406 139.108 157.01 139.25 159.299 137.414C164.187 133.476 165.783 131.542 166.645 128.45C166.956 127.335 167.04 125.259 166.857 123.735C166.772 123.071 166.8 122.916 167.125 122.436C167.323 122.125 167.944 120.897 168.495 119.697C169.541 117.424 170.417 115.956 171.137 115.278C171.363 115.067 172.211 114.558 173.016 114.149C174.641 113.344 174.556 113.429 176.067 110.803C178.412 106.709 179.5 103.335 179.5 100.13C179.5 98.4223 179.302 97.6317 178.398 95.8529L177.593 94.2436V92.8177C177.607 90.9825 177.833 90.2625 179.641 86.5214C181.181 83.3309 181.591 82.1168 181.718 80.2956C181.831 78.5592 181.591 77.3169 180.983 76.5687C180.164 75.5805 179.684 74.324 179.09 71.6982C178.483 68.9171 178.342 68.5218 177.565 67.3642C177.254 66.9124 176.081 64.6678 174.951 62.3808C172.183 56.8044 169.583 52.5128 166.249 48.0235C165.402 46.88 165.091 46.5553 164.752 46.4847C164.116 46.3576 162.972 45.6941 161.587 44.6353C160.034 43.4495 159.285 43.1106 157.604 42.8283C155.739 42.5177 155.146 42.2636 154.171 41.3742C153.648 40.8942 152.9 40.4001 152.179 40.0613C151.091 39.5531 150.371 39.3272 146.246 38.1696L144.438 37.6614L143.562 36.7861C142.29 35.5014 141.273 34.9932 137.205 33.5673C134.351 32.5791 133.504 32.198 132.373 31.4356L131.498 30.8568L131.413 29.9674C131.286 28.7251 130.749 26.9604 129.817 24.7017C127.726 19.6335 127.316 18.3912 127.09 16.3866C126.935 15.0737 127.132 13.436 127.528 12.589C127.811 12.0102 127.938 11.8972 129.647 10.8526C130.184 10.5279 130.41 10.2596 130.777 9.49731C131.201 8.63615 131.257 8.38203 131.3 7.11148L131.356 5.67151L130 5.29034C129.266 5.07858 127.231 4.42918 125.508 3.85039C119.49 1.81749 117.47 1.25279 114.517 0.744568C112.836 0.448105 109.361 0.391632 105.759 0.603394C103.597 0.730453 103.555 0.716339 102.481 0.349289C101.111 -0.116592 99.9103 -0.116592 96.7883 0.349289ZM114.644 2.52335C116.735 2.94687 118.317 3.48334 122.64 5.20564C124.745 6.03856 126.977 6.89972 127.627 7.11148L128.799 7.49265L128.121 8.21263C125.903 10.5843 124.745 13.4219 124.858 16.1748C124.9 17.3607 124.943 17.5159 125.861 19.5065C126.935 21.85 126.991 22.0476 127.881 26.0993C128.771 30.2074 129.294 31.7038 130.311 33.1015C130.664 33.5815 130.876 33.7085 131.625 33.9203C133.009 34.3156 135.919 35.2332 137.261 35.7273C138.646 36.2214 141.076 37.252 141.076 37.3508C141.076 37.379 140.977 37.6049 140.849 37.8308C140.736 38.0708 140.652 38.2825 140.68 38.3108C140.708 38.339 141.33 38.5084 142.093 38.706C142.841 38.9178 144.339 39.3978 145.412 39.8072C148.69 41.0213 151.261 41.8824 152.193 42.066C152.942 42.2212 153.083 42.2918 153.083 42.5318C153.083 42.7012 153.281 43.0259 153.507 43.28C153.818 43.633 154.1 43.76 154.764 43.8871C156.77 44.2541 158.465 45.0871 161.672 47.3176C162.859 48.1364 163.961 48.8564 164.102 48.8987C164.257 48.9411 164.695 49.5622 165.105 50.2822C165.515 51.0022 167.379 53.868 169.258 56.6774C173.087 62.3667 174.429 64.8231 175.305 67.7454C175.813 69.4394 176.251 71.6559 176.251 72.5594V73.0817L174.669 72.3758C165.147 68.1548 158.211 63.6231 143.124 51.7787C140.638 49.8305 137.205 47.1764 135.495 45.8917C132.486 43.633 132.077 43.2236 132.444 42.8565C132.769 42.5318 132.543 42.3624 131.06 41.7836C130.226 41.4589 129.251 40.993 128.912 40.753L128.291 40.3013L128.898 40.1601C131.187 39.666 135.948 42.1083 142.827 47.3035C145.822 49.5622 148.252 51.2563 149.523 51.9481C149.792 52.1034 149.961 52.3292 150.018 52.6257C150.074 52.9081 150.357 53.2892 150.781 53.6704C151.148 53.9951 151.798 54.6162 152.236 55.0539C152.659 55.4774 153.337 56.0139 153.719 56.2397C155.004 56.9738 156.784 58.1597 159.511 60.0373C163.565 62.8325 164.964 63.7078 167.224 64.8372C169.046 65.7548 172.38 67.0113 172.536 66.8419C172.564 66.8136 172.38 66.5454 172.126 66.2489C171.632 65.6842 170.332 64.9925 169.47 64.8513C169.061 64.7807 168.792 64.5972 168.269 63.9902C167.422 63.0019 166.376 62.3102 165.317 62.042C164.78 61.9008 164.229 61.6184 163.763 61.2514C162.308 60.0938 158.593 57.2985 156.05 55.4633C149.65 50.8046 145.879 47.7129 143.449 45.0729C143.138 44.7341 142.799 44.4518 142.7 44.4518C142.347 44.4518 139.719 43.0401 137.968 41.9107C135.623 40.386 133.645 39.4401 132.091 39.059C130.947 38.7766 130.777 38.6919 130.198 38.099C129.266 37.1249 128.291 36.4614 125.564 34.9367C122.23 33.0591 120.832 31.8874 120.055 30.3062C119.914 29.9815 119.391 29.4874 118.671 28.951C115.676 26.7346 113.839 24.377 108.937 16.4289C106.296 12.1373 103.965 9.15849 103.272 9.15849C102.679 9.15849 101.93 8.76321 101.168 8.04323C100.362 7.28088 99.7266 7.08325 98.6671 7.25266C97.4805 7.43617 96.7035 7.78911 95.1355 8.84792C93.186 10.1467 92.4373 10.4573 91.1941 10.4573C90.0499 10.4573 89.5695 10.2596 88.1286 9.18672C86.7866 8.19852 85.713 7.64793 84.6958 7.46442C83.5939 7.25266 82.9582 7.42206 81.7857 8.22675C81.2065 8.62204 80.4154 9.13026 80.034 9.37025C79.4548 9.72319 79.1582 10.0761 78.3247 11.4173C77.7031 12.3914 76.9261 13.4078 76.3752 13.9584C75.7819 14.5372 75.3439 15.116 75.1886 15.5113C74.1573 18.1512 72.8294 19.69 68.6761 22.9935C66.1192 25.0264 65.0032 26.0287 64.1839 27.0169C63.7459 27.5392 63.1385 28.0616 62.5734 28.3863C60.6946 29.4733 58.5756 31.1674 55.7361 33.8073C50.8765 38.3531 50.1137 38.9178 46.0734 40.993C43.2763 42.4189 41.4116 43.5765 40.6911 44.3247L40.2815 44.7624L40.8465 44.6635C41.9908 44.4659 43.1351 44.1271 44.3076 43.6471C46.6809 42.673 48.3761 41.6001 52.9955 38.099C54.7048 36.8002 56.5837 35.4308 57.1629 35.0355C57.7421 34.6402 59.183 33.4403 60.3414 32.3815C65.1586 27.9769 68.2947 25.6334 71.5297 23.9958C72.448 23.544 72.6881 23.3464 72.9707 22.8382C74.016 20.9323 75.6547 18.5889 77.1098 16.8807C77.6183 16.2736 78.2682 15.2431 78.8615 14.0854C80.4861 10.909 81.8705 9.76553 84.3568 9.61024L85.5293 9.53966L86.391 10.2596C88.058 11.6573 89.2588 12.1231 91.1376 12.1373C92.8893 12.1514 93.3414 11.9819 95.4463 10.5702C96.6329 9.77965 97.3534 9.44084 97.876 9.44084C98.2433 9.44084 98.1162 9.83612 97.4522 10.8243C97.1838 11.2196 97.0002 11.6008 97.0426 11.6431C97.2262 11.8267 97.9891 11.3749 98.3563 10.8667C98.5683 10.5843 98.766 10.3302 98.7802 10.302C98.8649 10.2032 99.2605 10.5985 99.2605 10.7961C99.2605 10.8949 98.9921 11.2761 98.6671 11.6573L98.0879 12.3349L98.8508 12.4478C99.2746 12.5043 100.023 12.5043 100.518 12.4619C101.507 12.3631 101.45 12.2925 101.153 13.2525C101.04 13.5913 101.125 13.5913 102.001 13.3372C102.75 13.1113 103.018 13.1537 103.23 13.5631C103.428 13.9301 103.159 14.2407 102.651 14.2407C101.817 14.2407 102.086 15.116 103.075 15.6101C103.739 15.9489 104.614 16.0336 105.067 15.7936C105.42 15.596 105.42 15.8219 105.052 16.1466C104.742 16.4289 104.685 16.8524 104.925 17.0077C105.01 17.0501 105.321 16.9795 105.617 16.8524C106.691 16.3724 106.903 16.9795 105.957 17.8548C105.448 18.3347 105.335 18.8147 105.702 18.9559C105.942 19.0547 106.606 18.7442 106.875 18.4194C107.101 18.1512 107.595 18.123 107.595 18.363C107.595 18.4618 107.355 18.6736 107.058 18.8289C106.649 19.0547 106.55 19.1959 106.578 19.4641C106.62 19.9018 106.635 19.9159 107.383 19.9865C108.104 20.0712 108.217 20.3253 107.666 20.6782C106.96 21.13 107.383 21.6241 108.146 21.2429C108.697 20.9465 109.418 20.9465 109.531 21.2429C109.573 21.37 109.446 21.6382 109.163 21.9205C108.443 22.6688 108.612 22.9229 109.841 22.9229C110.802 22.9229 111.042 23.1911 110.59 23.7699C110.279 24.1652 110.18 24.744 110.392 24.8852C110.463 24.9275 110.816 24.8569 111.198 24.744C111.989 24.5181 112.469 24.5887 112.328 24.9417C111.932 25.9722 112.271 26.5228 113.302 26.5228C113.882 26.5228 113.938 26.551 114.023 26.9604C114.079 27.2004 114.63 28.1463 115.252 29.0639C116.128 30.3627 116.396 30.8709 116.453 31.365C116.523 31.9015 116.594 32.0144 117.032 32.2544C117.3 32.3956 117.696 32.6779 117.922 32.8897C118.275 33.2285 118.303 33.3132 118.233 34.0897C118.105 35.4449 118.332 35.939 119.688 37.4214C120.521 38.3108 121.227 39.2848 121.906 40.4283C122.442 41.3601 123.332 42.8706 123.869 43.7742C125.536 46.6258 126.892 48.1364 132.034 52.8516C134.521 55.1386 136.682 57.2844 138.038 58.7809C140.412 61.4349 141.683 62.5784 142.997 63.2561C143.83 63.6937 143.929 63.7925 144.367 64.6678L144.819 65.6278H145.568C146.317 65.6278 146.317 65.6278 146.571 66.2348C146.712 66.5595 146.882 67.0395 146.938 67.2936C147.037 67.7454 147.037 67.7454 147.913 67.7454C149.241 67.7454 149.439 68.0842 148.633 68.9171C148.365 69.1994 148.139 69.4818 148.139 69.5665C148.139 69.7924 148.605 69.863 149.128 69.7218C149.933 69.4959 150.682 69.5383 150.682 69.8206C150.682 69.9477 150.752 70.2724 150.851 70.5265C151.007 70.9641 151.063 70.9923 151.727 70.9923C152.377 70.9923 152.462 71.0347 153.069 71.6982C153.564 72.2347 153.86 72.4323 154.256 72.5029C154.68 72.5594 154.778 72.6299 154.708 72.8135C154.425 73.4911 154.326 73.844 154.411 73.9146C154.566 74.0699 155.315 73.9711 155.781 73.7311C156.248 73.5052 156.248 73.5052 156.572 73.9005C157.01 74.4511 156.982 74.6628 156.403 75.1287C156.135 75.3405 155.909 75.5805 155.909 75.6652C155.909 75.764 156.417 75.7922 157.321 75.764C158.098 75.7358 158.734 75.7358 158.734 75.764C158.734 75.7922 158.564 76.0322 158.352 76.3004C158.042 76.724 158.013 76.8228 158.183 76.9357C158.593 77.204 159.073 77.2322 159.808 77.0345C160.952 76.7099 161.22 77.1616 160.358 77.9663C160.09 78.2345 159.864 78.5451 159.864 78.6722C159.864 78.8698 159.963 78.898 160.542 78.8274C161.15 78.7427 161.263 78.7851 161.912 79.2368C162.449 79.6321 162.76 79.7451 163.212 79.7451H163.791L163.735 80.2674C163.636 81.0721 163.777 81.185 164.568 80.9168C165.133 80.7333 165.331 80.7192 165.868 80.8745C166.617 81.0862 167.507 81.9756 167.761 82.7521L167.944 83.2744H168.849C169.823 83.2744 169.908 83.3591 169.583 84.0509C169.498 84.2485 169.47 84.4461 169.513 84.5026C169.668 84.6579 170.417 84.5732 170.84 84.3614C171.052 84.2485 171.406 84.1214 171.632 84.065C172.013 83.9803 172.013 83.9803 172.013 84.6438V85.3214H173.468C174.754 85.3214 174.994 85.3638 175.615 85.6885L176.322 86.0555L176.279 87.0296C176.265 87.5661 176.081 88.7802 175.898 89.7401C175.418 92.0695 175.347 92.9306 175.531 93.9189C175.615 94.3847 175.658 94.7941 175.615 94.8224C175.488 94.9494 173.736 94.1165 172.691 93.4389C172.126 93.0577 170.84 92.0695 169.823 91.2507C167.634 89.4296 166.645 88.7519 165.402 88.1731C164.681 87.8484 164.088 87.3967 162.901 86.2532C162.054 85.4202 159.793 83.4579 157.886 81.8627C154.114 78.7145 151.19 75.891 149.975 74.2393C149.552 73.6464 148.337 72.3758 147.221 71.3594C138.9 63.6937 132.416 57.0727 127.74 51.4399C122.513 45.1576 117.95 38.2402 114.701 31.7038C114.122 30.5462 113.627 29.6286 113.599 29.6568C113.5 29.7557 113.952 31.7603 114.32 32.8756C114.828 34.3861 115.888 36.5602 118.021 40.3719C121.581 46.7811 123.502 49.5764 126.709 53.021C127.514 53.8963 128.333 54.9127 128.545 55.308C129.054 56.2115 143.632 70.8653 146.317 73.1523C147.376 74.0558 148.393 75.0299 148.577 75.3264C150.102 77.8534 152.674 80.338 157.886 84.3332C160.358 86.2249 162.506 88.0319 163.593 89.1472C164.003 89.5707 164.441 89.9095 164.582 89.9095C164.709 89.9095 165.246 90.1354 165.783 90.4036C166.306 90.6719 166.814 90.8978 166.913 90.8978C167.012 90.8978 167.436 91.2366 167.846 91.6601C168.255 92.0695 169.131 92.733 169.781 93.1283C171.264 94.0177 172.225 94.8647 172.592 95.5706C172.79 95.9659 172.959 96.1212 173.2 96.1212C173.722 96.1212 175.206 96.94 175.7 97.5047C177.579 99.6364 177.395 103.999 175.234 108.135C174.471 109.617 173.412 110.944 173.016 110.944C172.663 110.944 172.338 110.535 172.225 109.956C172.154 109.561 171.956 109.335 171.264 108.827C168.227 106.61 163.918 102.502 157.674 95.8388C155.81 93.8624 153.097 91.053 151.642 89.6131C150.173 88.1731 148.986 86.9308 148.986 86.8602C148.986 86.5637 147.644 84.6861 146.599 83.5567C144.96 81.7638 144.042 80.6345 142.474 78.5451C141.09 76.6957 139.705 75.0722 137.035 72.1923C133.97 68.8606 132.416 66.7571 131.215 64.2584C130.622 63.0161 130.382 62.6914 129.52 61.8867C128.15 60.6161 126.935 59.0632 124.42 55.3362C123.233 53.5857 121.891 51.6798 121.425 51.101C120.804 50.3105 120.309 49.4352 119.589 47.8399C119.052 46.64 117.117 42.6589 115.294 39.0025C112.638 33.6944 111.974 32.2544 111.974 31.8027C111.974 31.1674 111.692 30.6874 111.268 30.5745C111.014 30.5039 110.986 30.5745 110.986 31.1956C110.986 31.9297 111.395 33.3415 111.791 33.9908C111.918 34.1885 112.215 34.5555 112.427 34.7955C112.751 35.1485 112.935 35.6285 113.317 37.1249C114.743 42.7859 116.368 46.1035 122.315 55.4774C123.671 57.6091 125.169 60.0373 125.663 60.8985C126.61 62.5784 127.062 63.0866 127.599 63.0866C127.895 63.0866 127.938 63.1431 127.938 63.5949C127.938 63.9902 128.037 64.1878 128.39 64.4701C129.887 65.7407 130.113 66.0089 130.805 67.4348C131.526 68.903 132.26 69.8065 132.84 69.9477C133.094 70.0182 133.136 70.1029 133.066 70.4418C132.896 71.3029 133.348 71.8394 134.224 71.8394C134.535 71.8394 134.577 71.91 134.591 72.4041C134.605 72.7147 134.62 73.0393 134.634 73.1241C134.634 73.1946 135.058 73.604 135.566 73.9993C136.71 74.9311 137.445 75.891 137.756 76.8651L137.996 77.6275H138.66H139.338L139.324 78.2204C139.31 78.7992 139.338 78.8274 140.214 79.4204C141.33 80.1404 141.443 80.3098 141.146 80.8603C140.722 81.7074 140.906 82.0038 141.867 82.0038C142.319 82.0038 142.375 82.0603 142.629 82.625C142.926 83.3168 143.336 83.6132 143.844 83.5144C144.268 83.4438 144.268 83.4862 143.83 84.0085C143.632 84.2344 143.505 84.4744 143.548 84.545C143.576 84.6014 143.957 84.8273 144.395 85.0249C145.229 85.4343 145.497 85.9002 145.186 86.3943C145.102 86.5355 145.031 86.6767 145.031 86.6908C145.031 86.719 145.511 86.7049 146.105 86.6908C147.108 86.6484 147.178 86.6626 147.079 86.9025C147.009 87.0437 146.952 87.4108 146.952 87.7214C146.938 88.286 146.938 88.286 148.054 88.879C149.481 89.6554 149.792 89.9378 149.905 90.6719C150.032 91.3777 150.159 91.5471 150.837 91.886C151.19 92.0695 151.501 92.4083 151.798 92.9448C152.165 93.5942 152.363 93.7777 152.914 94.0177C153.987 94.4553 154.001 94.4694 153.959 95.1188C153.917 95.6412 153.959 95.7118 154.369 95.9659C154.623 96.1212 155.019 96.2906 155.23 96.3329C155.64 96.4317 155.711 96.5306 155.499 96.7706C155.315 96.9682 155.202 97.5894 155.315 97.7729C155.372 97.8717 155.824 97.9564 156.332 97.9846C157.392 98.027 157.533 98.2388 157.025 98.9305C156.516 99.6223 156.728 99.8481 157.802 99.7634C159.257 99.6364 159.511 100.003 158.649 100.949C157.999 101.683 158.126 101.81 159.61 101.909C160.288 101.952 160.782 102.05 160.811 102.149C160.839 102.234 160.669 102.53 160.429 102.813C159.596 103.745 160.062 104.196 161.489 103.857C162.901 103.505 163.664 103.928 162.972 104.662C162.802 104.846 162.689 105.1 162.718 105.255C162.76 105.467 162.901 105.509 163.749 105.509C164.709 105.509 164.738 105.523 164.78 105.89C164.808 106.102 164.724 106.455 164.611 106.695C164.483 106.921 164.385 107.246 164.385 107.415C164.385 107.824 165.105 107.796 165.769 107.344C166.376 106.921 166.532 106.907 166.814 107.231C167.04 107.514 167.012 107.697 166.518 108.728C166.263 109.264 166.235 109.448 166.362 109.617C166.659 109.956 166.927 109.843 167.577 109.151C168.058 108.615 168.227 108.516 168.368 108.657C168.453 108.742 168.651 108.827 168.792 108.827C169.117 108.827 169.103 108.954 168.764 109.391C168.397 109.857 168.411 110.196 168.806 110.394C168.976 110.493 169.343 110.761 169.626 111.001C169.894 111.241 170.247 111.509 170.403 111.594C170.657 111.735 170.643 111.777 170.261 112.751C169.739 114.036 168.792 115.518 167.634 116.859C166.8 117.834 166.701 118.017 166.405 119.161C166.235 119.852 165.924 120.671 165.698 120.996C165.331 121.546 164.512 122.238 164.229 122.238C164.159 122.238 163.198 121.01 162.082 119.514C159.793 116.45 159.087 115.617 157.759 114.417C156.982 113.725 156.657 113.274 155.866 111.806C154.51 109.321 153.479 107.81 152.236 106.497C151.515 105.749 150.865 104.846 150.272 103.815C149.071 101.74 147.461 99.3964 144.508 95.4718L142.064 92.2107V91.4483C142.05 90.7001 142.036 90.6578 140.638 88.9213C138.971 86.832 138.109 85.5614 135.495 81.298C133.263 77.6698 130.579 73.5758 129.011 71.4159C128.121 70.1877 127.938 69.8347 127.938 69.3971C127.938 68.6912 127.895 68.6206 123.756 61.7314C117.809 51.821 114.983 46.6964 115.139 46.1035C115.28 45.5247 114.941 43.9859 114.447 42.9695C114.192 42.4189 113.543 41.3742 113.02 40.6401C112.483 39.906 111.791 38.7766 111.452 38.1272C110.929 37.139 110.844 36.8284 110.844 36.1226C110.844 35.3743 110.745 35.092 109.997 33.6238C109.248 32.1415 107.256 29.2051 107.002 29.2051C106.846 29.2051 106.719 30.038 106.818 30.5039C106.875 30.7439 107.115 31.365 107.341 31.8733C107.567 32.3815 108.302 34.1744 108.965 35.8402C110.392 39.4543 110.816 40.3013 112.13 42.2918C113.401 44.2118 113.67 44.8329 113.67 45.8212C113.67 47.487 115.718 51.5528 121.016 60.3338C124.42 66.0089 125.946 68.7053 126.37 69.8771C126.68 70.6959 126.906 71.0912 128.715 73.957C129.322 74.9311 130.113 76.2581 130.452 76.9216C131.116 78.1781 139.606 91.2366 144.593 98.6623C151.713 109.278 157.307 116.803 162.76 123.128L164.554 125.217L164.469 125.951C164.088 128.831 162.746 131.217 160.274 133.391C158.423 135.043 157.067 136.073 156.799 136.073C156.417 136.073 155.979 135.551 155.668 134.732C155.513 134.337 154.68 133.08 153.804 131.923C150.992 128.182 148.662 124.582 144.537 117.65C139.084 108.46 138.01 106.695 136.47 104.267C135.072 102.093 134.86 101.683 134.86 101.161C134.86 100.102 134.464 98.7893 133.956 98.1823C132.275 96.107 130.862 93.6224 127.175 86.1684C125.593 82.9779 123.841 79.6321 123.29 78.7286C122.612 77.5992 122.146 76.6251 121.863 75.7216C121.284 73.957 120.691 72.5311 118.543 67.8865C116.114 62.6349 115.351 60.8279 113.698 56.3668C112.921 54.2774 111.65 50.974 110.873 49.0399C107.807 41.3601 107.595 40.7389 107.101 37.6049C106.846 35.9673 106.253 34.5979 105.603 34.132L105.18 33.8356L105.25 34.3014C105.307 34.5697 105.462 35.6002 105.632 36.6167C106.112 39.7084 106.96 43.393 107.864 46.287C108.612 48.687 112.031 58.1456 113.415 61.6043C114.503 64.3572 116.255 67.9006 117.329 69.5383L118.176 70.8512L117.936 71.4864C117.668 72.2205 117.766 72.4888 118.416 72.8276C118.642 72.9405 118.854 73.0535 118.882 73.0676C118.897 73.0817 118.755 73.3217 118.543 73.5899L118.162 74.0981L118.529 74.2393C118.953 74.3946 119.179 74.8746 119.179 75.5946C119.179 76.131 119.589 76.6393 120.027 76.6393C120.182 76.6393 120.309 76.724 120.309 76.8228C120.309 76.9357 120.182 77.1334 120.027 77.2745C119.871 77.4157 119.744 77.6839 119.744 77.8816C119.744 78.2204 119.772 78.2204 120.38 78.1498C120.987 78.0651 121.016 78.0651 121.242 78.5733L121.496 79.0816L120.959 79.5051C120.465 79.9004 120.451 79.9286 120.677 80.1827C120.846 80.3804 121.114 80.4509 121.581 80.4509C122.047 80.4509 122.358 80.5356 122.626 80.7474C123.149 81.1568 123.064 81.5803 122.372 81.9333C121.68 82.3003 121.454 82.625 121.665 82.9497C121.835 83.2038 122.146 83.232 123.149 83.0485C123.601 82.9779 123.671 83.0062 123.742 83.2885C123.869 83.7544 123.671 83.9944 122.993 84.2485C122.273 84.5167 122.188 84.672 122.527 85.0814C122.781 85.3779 122.796 85.3779 123.53 85.1661C123.94 85.0391 124.321 84.9826 124.364 85.0249C124.406 85.0673 124.335 85.2649 124.208 85.4485C123.926 85.8861 123.912 86.4367 124.194 86.6626C124.307 86.7614 124.66 86.832 124.971 86.832C125.48 86.8178 125.536 86.8602 125.536 87.1708C125.536 87.4955 125.098 88.0743 124.858 88.0743C124.646 88.0743 124.109 88.6531 124.194 88.7802C124.236 88.8507 124.816 89.0766 125.465 89.2743C126.511 89.599 126.68 89.6978 126.765 90.0084C126.836 90.3189 126.765 90.4601 126.412 90.7566C125.889 91.1801 125.861 91.3354 126.214 91.6319C126.61 91.9848 127.034 92.0554 127.288 91.8154C127.514 91.5754 127.796 91.6319 127.796 91.9283C127.796 92.013 127.627 92.253 127.429 92.4648C126.949 92.973 127.062 93.2977 127.726 93.3118C128.941 93.3542 129.096 93.693 128.277 94.5965C127.881 95.0482 127.811 95.1894 127.952 95.3588C128.164 95.6129 128.602 95.6129 129.35 95.3447C129.675 95.2318 129.972 95.1329 129.986 95.1329C130.014 95.1329 130.057 95.2741 130.099 95.4294C130.156 95.6553 130.071 95.8529 129.76 96.1353C129.35 96.5164 129.209 97.1517 129.492 97.3211C129.562 97.3635 129.817 97.307 130.043 97.18C130.664 96.8694 130.947 96.9117 131.229 97.4058L131.483 97.8576L130.904 98.3799C130.509 98.747 130.367 98.9729 130.424 99.1423C130.537 99.4387 131.046 99.6505 131.596 99.6505C132.063 99.6505 132.388 99.9752 132.26 100.286C132.218 100.413 131.95 100.61 131.667 100.723C130.791 101.09 131.328 101.768 132.515 101.768H133.052L132.953 102.7C132.84 103.787 132.91 103.886 133.829 103.886C134.422 103.886 134.422 103.9 134.351 104.309C134.224 104.944 134.379 105.34 135.072 106.159C135.425 106.568 135.707 107.02 135.707 107.175C135.707 107.316 135.51 107.641 135.269 107.881C134.874 108.276 134.846 108.333 135.072 108.488C135.255 108.629 135.425 108.629 135.891 108.46C136.555 108.234 136.922 108.304 137.049 108.686C137.162 109.053 137.049 109.222 136.47 109.462C136.159 109.589 135.99 109.758 135.99 109.928C135.99 110.253 136.188 110.351 137.247 110.577C137.671 110.662 138.038 110.803 138.067 110.888C138.095 110.958 137.897 111.142 137.614 111.269C137.247 111.453 137.12 111.594 137.12 111.862C137.12 112.257 137.191 112.271 138.406 112.229C139.041 112.201 139.211 112.229 139.296 112.441C139.437 112.808 139.281 113.147 138.872 113.33C138.575 113.457 138.519 113.57 138.561 113.951L138.603 114.403L139.493 114.375C140.327 114.333 140.369 114.347 140.369 114.657C140.369 114.841 140.214 115.137 140.016 115.321C139.818 115.504 139.663 115.73 139.663 115.829C139.663 116.041 140.51 116.309 141.203 116.309C141.81 116.309 142.206 116.648 142.206 117.17C142.206 117.495 142.107 117.622 141.725 117.777C141.471 117.89 141.203 118.045 141.146 118.144C140.977 118.427 141.443 118.737 142.234 118.864C143.534 119.076 143.717 119.838 142.601 120.361C141.881 120.699 141.725 121.052 142.149 121.405C142.333 121.561 142.531 121.532 143.35 121.25C144.254 120.939 144.339 120.925 144.551 121.137C144.861 121.448 144.72 121.758 144.155 121.998C143.576 122.238 143.308 122.563 143.421 122.859C143.519 123.113 143.703 123.142 145.215 123.099L146.302 123.057V123.495C146.302 123.848 146.133 124.116 145.596 124.695C144.805 125.528 144.593 126.149 144.96 126.516C145.229 126.784 145.497 126.699 146.218 126.092C146.67 125.711 147.108 125.711 147.348 126.078C147.56 126.417 147.334 126.756 146.726 127.052C146.147 127.335 145.893 127.673 145.977 128.04C146.09 128.45 146.585 128.506 147.291 128.182C148.054 127.829 148.464 127.815 148.704 128.097C148.972 128.422 148.76 128.958 148.209 129.297C147.659 129.636 147.376 130.059 147.489 130.37C147.588 130.624 148.52 130.624 148.986 130.356C149.382 130.13 150.23 130.087 150.526 130.271C150.865 130.483 150.583 130.836 149.778 131.189C148.972 131.542 148.69 131.965 148.986 132.332C149.212 132.6 149.636 132.6 150.399 132.332C150.724 132.219 151.091 132.12 151.19 132.12C151.543 132.12 151.388 132.53 150.894 132.911C150.498 133.207 150.399 133.377 150.399 133.772C150.399 134.351 150.653 134.478 151.233 134.181C151.459 134.054 151.854 133.956 152.094 133.956C152.702 133.956 152.674 134.464 152.024 135.085C151.529 135.565 151.374 136.059 151.713 136.087C151.939 136.116 151.925 136.116 152.631 135.861C153.874 135.424 153.677 135.791 151.755 137.555C150.752 138.487 148.704 140.435 147.221 141.904C144.24 144.84 144.438 144.741 143.477 143.795C142.841 143.174 142.474 142.454 141.697 140.379C141.33 139.363 140.087 136.694 138.942 134.45C136.428 129.494 135.849 128.139 134.789 124.85C133.885 121.984 133.405 120.756 130.593 114.05C128.107 108.093 126.553 104.535 125.268 101.853C124.717 100.695 124.067 99.114 123.827 98.3235C122.838 95.0906 121.948 92.6765 119.603 86.8037C118.656 84.432 117.385 81.1568 116.763 79.5192C116.156 77.8816 115.393 75.8769 115.068 75.0722C114.093 72.6299 113.543 70.8935 113.02 68.5218C112.328 65.3454 112.144 64.7243 110.406 59.5573C109.559 57.0303 108.584 53.868 108.245 52.5269C107.765 50.6775 107.383 49.5905 106.663 48.0093C105.815 46.1459 105.617 45.5106 104.685 41.7977C103.541 37.2096 102.919 35.1908 102.1 33.525C101.521 32.325 101.492 32.325 101.309 33.5956C101.139 34.9085 101.591 36.6873 102.792 39.4543C103.908 41.9954 104.205 42.9553 104.36 44.593C104.643 47.6705 104.77 48.3905 105.462 50.5928C105.843 51.8351 106.677 54.6021 107.313 56.7338C107.948 58.8656 108.824 61.6326 109.248 62.8749C112.412 72.0794 113.585 75.7922 114.715 80.1404C115.224 82.1168 115.534 82.9497 116.594 85.2508C121.75 96.3612 123.756 101.288 127.231 111.297C129.251 117.114 131.356 121.97 132.26 122.859C132.712 123.325 132.882 123.65 133.08 124.426C133.871 127.405 135.382 131.005 138.42 137.203C140.496 141.424 142.347 145.56 142.841 147.071C143.138 147.988 143.053 148.214 141.965 149.202C141.061 150.021 139.423 150.882 136.569 152.012C134.295 152.929 133.207 153.437 132.571 153.889C132.176 154.157 132.176 154.157 131.752 153.861C131.229 153.494 130.933 152.929 130.297 151.108C130.028 150.332 129.153 148.016 128.361 145.955C124.448 135.805 122.81 130.694 121.708 125.132C121.397 123.495 120.874 122.238 120.521 122.238C120.408 122.238 120.309 122.196 120.309 122.153C120.309 121.899 118.134 112.328 117.781 111.015C117.555 110.154 117.074 108.375 116.721 107.062C115.93 104.168 115.944 104.196 114.277 100.159C112.653 96.2341 112.158 94.7659 111.395 91.5189C111.07 90.1213 110.463 87.5519 110.053 85.7873C109.629 84.0226 108.909 80.6203 108.429 78.2345C107.963 75.8487 107.397 72.9264 107.157 71.7688C106.931 70.5971 106.14 67.2089 105.406 64.216C103.527 56.5644 102.142 50.014 100.659 41.953C100.391 40.5272 100.136 39.3696 100.08 39.3696C99.882 39.3696 99.9668 44.5506 100.179 46.6823C100.701 51.6375 102.072 59.2467 103.272 63.736C104.459 68.1689 104.614 68.9312 104.841 71.6982C105.067 74.3523 105.165 74.804 105.745 75.5099C106.112 75.9758 106.14 76.0463 105.957 76.371C105.716 76.8087 105.702 77.6557 105.957 78.2345C106.055 78.4886 106.394 79.011 106.705 79.4063C107.214 80.0415 107.256 80.1404 107.087 80.3804C106.691 80.9168 106.846 81.7215 107.652 83.2744L108.415 84.7426L108.076 85.0108C107.623 85.3496 107.652 85.4626 108.231 86.112C108.768 86.7049 108.867 87.2414 108.513 87.7072C108.203 88.1308 108.259 88.4413 108.725 88.8225C109.248 89.2601 109.262 89.5284 108.796 89.8248C108.118 90.2625 108.386 90.7283 109.446 90.9542C110.18 91.1095 110.011 92.0836 109.248 92.1965C109.079 92.2248 108.923 92.3518 108.895 92.493C108.852 92.6765 109.05 92.8318 109.629 93.1001C110.844 93.6506 110.957 94.2294 109.912 94.5683C109.629 94.6671 109.361 94.8647 109.305 95.0482C109.107 95.5706 109.262 95.7259 110.053 95.6835C110.463 95.6694 110.873 95.6976 110.957 95.7541C111.282 95.9518 111.127 96.4459 110.548 96.9541C109.898 97.5611 109.954 97.6882 110.986 97.9564C112.229 98.267 112.427 98.747 111.551 99.3258C110.788 99.8199 110.703 99.9187 110.703 100.272C110.703 100.681 110.929 100.78 111.833 100.78C113.076 100.78 113.401 101.627 112.398 102.262C112.088 102.46 111.833 102.714 111.833 102.827C111.833 102.94 112.201 103.222 112.667 103.448C113.119 103.688 113.528 103.97 113.585 104.097C113.74 104.535 113.67 104.733 113.359 104.733C112.441 104.747 111.946 105.283 112.342 105.848C112.525 106.102 112.695 106.144 113.472 106.144C114.348 106.144 114.376 106.159 114.376 106.497C114.376 106.751 114.221 106.949 113.811 107.203C113.317 107.514 113.26 107.599 113.387 107.839C113.585 108.206 114.079 108.516 114.63 108.629C115.252 108.756 115.266 109.278 114.659 109.533C114.136 109.758 113.952 110.055 114.051 110.563C114.122 110.93 114.164 110.944 114.941 110.944C115.732 110.944 115.775 110.973 115.986 111.382C116.255 111.918 116.213 112.003 115.464 112.37C114.15 113.034 114.136 113.485 115.421 113.485C116.213 113.485 116.594 113.683 116.665 114.107C116.693 114.333 116.594 114.417 116.114 114.516C115.577 114.615 115.506 114.671 115.506 115.024C115.506 115.49 115.662 115.645 116.382 115.871C116.848 116.027 117.06 116.252 117.06 116.605C117.06 116.676 116.806 116.732 116.481 116.732C115.944 116.732 115.916 116.747 115.958 117.128C115.986 117.438 116.156 117.594 116.848 117.932C117.329 118.172 117.71 118.469 117.738 118.61C117.809 118.977 117.512 119.274 117.046 119.274C116.735 119.274 116.636 119.344 116.636 119.542C116.636 119.895 116.933 120.121 117.54 120.219C117.823 120.262 118.049 120.318 118.049 120.346C118.049 120.375 117.95 120.615 117.823 120.883C117.484 121.575 117.639 122.026 118.332 122.323C119.08 122.662 119.108 123.128 118.402 123.466C117.908 123.706 117.639 124.186 117.837 124.483C117.879 124.568 118.218 124.638 118.586 124.638C119.504 124.638 119.857 124.765 119.97 125.104C120.041 125.33 119.956 125.499 119.617 125.796C119.264 126.12 119.038 126.191 118.473 126.191C117.809 126.191 117.766 126.219 117.766 126.558C117.766 127.01 118.445 127.32 119.504 127.32C119.942 127.32 120.366 127.405 120.535 127.518C120.775 127.716 120.79 127.744 120.578 127.956C120.465 128.083 120.14 128.295 119.871 128.422C119.335 128.69 119.179 129.142 119.532 129.438C119.659 129.537 120.083 129.692 120.479 129.777C121.157 129.932 121.185 129.96 120.959 130.186C120.818 130.313 120.549 130.469 120.338 130.511C119.617 130.666 119.32 130.836 119.32 131.132C119.32 131.429 119.843 131.739 120.606 131.894C120.959 131.965 120.987 132.021 120.959 132.713C120.945 133.433 120.945 133.433 121.581 133.814C122.428 134.309 122.414 134.633 121.524 135.085C120.705 135.494 120.606 135.664 121.001 136.059C121.242 136.299 121.482 136.356 122.146 136.356C122.951 136.356 122.993 136.37 122.993 136.708C122.993 136.977 122.866 137.118 122.471 137.301C121.906 137.57 121.722 138.05 121.99 138.473C122.117 138.657 122.202 138.657 122.598 138.487C123.46 138.134 123.629 138.191 123.671 138.854C123.714 139.334 123.657 139.475 123.417 139.602C123.262 139.687 122.993 139.715 122.852 139.673C122.654 139.602 122.57 139.645 122.57 139.814C122.57 140.167 123.191 140.704 123.799 140.859C124.095 140.944 124.463 141.099 124.618 141.212C124.872 141.395 124.872 141.424 124.646 141.762C124.519 141.96 124.109 142.299 123.742 142.511C123.361 142.722 123.05 142.92 123.022 142.934C122.993 142.948 123.05 143.104 123.135 143.273C123.29 143.555 123.389 143.569 124.378 143.527L125.465 143.485V144.049C125.465 144.586 125.451 144.614 124.802 144.798C123.926 145.038 123.883 145.405 124.689 145.814C125.296 146.125 125.748 146.181 125.889 145.955C126.031 145.729 126.384 146.068 126.285 146.322C126.242 146.421 126.002 146.647 125.734 146.816C124.787 147.395 125.254 148.355 126.483 148.355C127.274 148.355 127.288 148.638 126.497 149.442C125.748 150.205 125.889 150.416 127.203 150.543C128.531 150.67 128.743 150.727 128.842 150.981C129.082 151.616 128.446 152.026 127.26 152.026C126.638 152.026 126.638 152.026 126.836 152.35C126.963 152.52 127.401 152.788 127.867 152.943C128.319 153.099 128.715 153.296 128.743 153.381C128.814 153.579 127.26 154.002 124.66 154.496C121.778 155.033 119.603 155.795 119.052 156.459C118.939 156.586 118.812 156.684 118.755 156.684C118.586 156.684 117.823 155.019 117.427 153.79C116.891 152.181 116.424 149.753 115.93 146.026C115.195 140.52 114.701 137.923 114.093 136.13C113.754 135.156 113.74 134.478 114.037 134.238C114.546 133.8 114.546 133.574 114.037 132.29C112.822 129.255 112.186 126.12 111.198 118.497C110.237 111.1 109.87 109.039 108.584 104.239C107.228 99.1282 106.804 97.0247 106.663 94.5683L106.564 93.0436L106.945 92.6765L107.341 92.3236L106.79 92.0413C106.479 91.886 106.154 91.6742 106.055 91.5613C105.773 91.2083 103.202 76.1734 101.945 67.463C101.252 62.6631 100.786 59.7973 99.0486 49.7458C97.537 40.9789 97.1414 37.7602 97.1838 34.8238L97.2121 32.7626L96.7883 32.1556C96.1243 31.2239 96.0113 31.2803 96.0113 32.4944C96.0113 40.4989 98.4411 59.2467 102.1 79.3216C104.134 90.5307 104.134 90.5025 105.038 93.34C105.9 96.0082 106.013 96.6012 106.112 99.1987C106.225 101.937 106.55 103.773 107.722 108.657C108.937 113.655 109.064 114.361 110.195 121.815C111.833 132.501 113.853 144.459 115.789 154.708C116.17 156.769 116.495 158.491 116.495 158.548C116.495 158.703 115.082 159.466 113.896 159.931C110.548 161.273 106.677 161.569 103.696 160.694L102.976 160.496L102.891 156.995C102.594 145.941 101.563 135 98.3281 108.827C97.65 103.293 96.8024 95.9659 96.2091 90.4036C95.7712 86.3943 95.6864 85.0391 95.5875 80.5921C95.531 77.7122 95.3474 73.8158 95.1778 71.7688C94.1183 58.6115 94.0053 56.7621 93.9629 52.4986C93.9206 48.1082 93.8782 47.1764 93.5391 44.3106C93.2849 42.2212 92.9882 40.7248 92.5079 39.2425C92.0558 37.8025 92.0276 37.8731 91.7733 41.0777C91.5049 44.5788 91.6462 48.5882 92.1123 50.5928C92.5644 52.4986 92.5644 52.6539 92.1265 53.0633C91.7168 53.4445 91.6885 53.7127 91.9852 54.6868C92.1406 55.1809 92.1971 55.9715 92.183 57.4115C92.183 59.2891 92.1971 59.5008 92.522 60.1361L92.8611 60.8279H92.4796C91.6179 60.8279 91.5473 61.6043 92.3808 61.9996C92.7622 62.1973 92.9034 62.3525 92.9034 62.5925C92.9034 63.0019 92.5644 63.369 92.183 63.369C91.8298 63.369 91.8439 63.4255 92.3384 64.1454C92.9317 65.0066 92.9317 65.3172 92.3666 65.7125L91.9004 66.0372L92.6068 66.5454C93.0023 66.8277 93.3272 67.096 93.3272 67.1383C93.3272 67.1665 93.073 67.463 92.748 67.7736L92.1689 68.3383L92.6209 68.7195L93.0588 69.0865L92.8328 69.8206C92.6209 70.5124 92.635 70.5688 92.9034 71.0206C93.0588 71.2747 93.2566 71.8111 93.3414 72.2205C93.4968 72.8841 93.4826 72.997 93.2566 73.2511C93.1153 73.4064 92.9176 73.5335 92.8046 73.5335C92.6633 73.5335 92.6915 73.6887 92.9317 74.1264C93.2142 74.6628 93.2566 75.0158 93.3272 77.204C93.3979 79.4486 93.4261 79.731 93.7228 80.2251C94.1183 80.8886 94.0477 81.1568 93.4685 81.1568C92.8328 81.1568 92.8893 81.6791 93.6098 82.3285C94.3444 82.9779 94.3726 83.4156 93.6945 83.4156C93.4261 83.4156 93.1577 83.4862 93.1153 83.5709C93.0588 83.6415 93.2849 84.1073 93.5956 84.5732C94.3726 85.7308 94.3444 86.1402 93.4685 86.2673C93.2001 86.2955 93.1153 86.3943 93.1153 86.6484C93.1153 86.9167 93.2707 87.0861 93.751 87.3684C94.7399 87.9472 94.9236 88.9213 94.0336 88.9213C93.4685 88.9213 93.3696 89.2178 93.7369 89.8107C94.1466 90.4742 94.1183 90.7425 93.6098 90.9119C93.3838 90.9966 93.186 91.1236 93.186 91.1942C93.186 91.406 93.7087 91.8577 94.3302 92.1683L94.9094 92.4789L94.5563 92.8459C93.7793 93.6647 93.8075 94.2577 94.641 94.5683C95.192 94.7659 95.0931 95.1329 94.415 95.4718C93.7228 95.8106 93.751 96.22 94.4856 96.6153C95.2061 96.9964 95.192 97.3494 94.4574 97.6458C93.6522 97.9564 93.7228 98.3799 94.5986 98.5917C95.0931 98.7188 95.2626 98.8317 95.3756 99.1423C95.531 99.594 95.3332 99.7917 94.7117 99.7917C94.1466 99.7917 94.189 100.3 94.8247 101.048L95.3474 101.641L94.9518 102.05L94.5704 102.446L94.8671 102.742C95.0507 102.926 95.3474 103.039 95.6581 103.039C96.0537 103.039 96.1526 103.095 96.1526 103.307C96.1526 103.66 95.7853 104.027 95.4463 104.027C95.305 104.027 95.0648 104.14 94.8953 104.267C94.641 104.493 94.6269 104.563 94.7823 104.86C94.8671 105.057 95.2343 105.41 95.5875 105.65C96.2797 106.13 96.6046 106.737 96.3221 107.02C96.2373 107.104 95.8135 107.175 95.3615 107.161C94.6975 107.147 94.5845 107.175 94.6552 107.359C94.6975 107.486 94.7399 107.641 94.7399 107.711C94.7399 107.782 95.0931 108.064 95.5169 108.333C95.9407 108.601 96.3645 108.968 96.4492 109.123C96.7035 109.603 96.4069 110.055 95.7005 110.253C94.9518 110.464 94.7399 110.62 94.7399 110.958C94.7399 111.311 94.9377 111.396 95.9266 111.495C96.647 111.566 96.7883 111.622 96.8307 111.862C96.9013 112.342 96.534 112.667 95.8277 112.737C94.7399 112.864 94.7823 113.316 95.9124 113.74C97.1414 114.205 97.1414 114.756 95.9124 115.052C95.1355 115.25 94.8953 115.617 95.305 116.027C95.5028 116.224 95.7712 116.309 96.2656 116.309C97.3534 116.309 97.9184 116.93 97.3251 117.481C97.1838 117.594 96.7035 117.834 96.2515 118.003L95.4321 118.314L95.7712 118.751C96.308 119.457 96.8024 119.754 97.424 119.768C97.9325 119.768 97.9891 119.796 97.9891 120.135C97.9891 120.417 97.8902 120.544 97.5653 120.671C97.3392 120.756 96.9578 120.897 96.7318 120.982C95.8277 121.321 96.0819 121.984 97.2545 122.323C97.6924 122.45 98.1586 122.633 98.2716 122.746C98.5824 123.043 98.2857 123.396 97.5653 123.608C96.7883 123.833 96.5764 124.017 96.5764 124.511C96.5764 125.005 96.6894 125.076 97.7206 125.16C98.6813 125.259 98.9214 125.499 98.766 126.205C98.653 126.685 98.5683 126.699 97.6924 126.389C96.76 126.05 96.5764 126.163 96.5764 127.095C96.5764 128.125 96.8589 128.45 97.7772 128.549C99.0344 128.662 99.1192 128.704 99.1192 129.142C99.1192 129.72 98.8084 129.89 97.6359 129.974C96.6611 130.031 96.5764 130.059 96.5764 130.342C96.5764 130.807 96.9437 131.217 97.7065 131.64C98.5683 132.106 98.6248 132.445 97.9184 132.741C97.3251 132.996 97.2262 133.207 97.424 133.744C97.5653 134.125 97.6076 134.125 98.2998 134.054C99.1333 133.956 99.543 134.125 99.543 134.577C99.543 135 99.1474 135.339 98.54 135.452C97.8902 135.579 97.424 135.89 97.424 136.2C97.424 136.596 97.7206 136.765 98.6389 136.864C99.7408 136.991 99.9668 137.118 99.9668 137.626C99.9668 138.12 99.656 138.247 98.766 138.106C98.3422 138.05 98.0597 138.078 97.9184 138.191C97.6359 138.431 97.6359 139.588 97.9325 140.012C98.1303 140.28 98.2575 140.322 98.7519 140.28C100.405 140.097 100.362 140.986 98.6954 141.537C98.0456 141.748 97.9043 141.847 97.876 142.158C97.8195 142.666 98.2151 142.948 99.2181 143.118C100.278 143.287 100.673 143.485 100.673 143.824C100.673 144.247 100.334 144.417 99.2746 144.529C98.1868 144.642 97.763 144.896 97.9043 145.348C98.0456 145.772 98.7943 146.125 99.769 146.209C100.645 146.28 100.673 146.28 100.673 146.675C100.673 147.198 100.334 147.367 99.3452 147.367C98.7236 147.367 98.5541 147.409 98.5541 147.593C98.5541 148.016 98.8508 148.355 99.543 148.708C99.9244 148.892 100.278 149.118 100.32 149.202C100.489 149.485 99.9668 149.866 99.2887 149.965C98.2716 150.106 98.2151 150.176 98.5683 150.967C98.8508 151.588 98.8649 151.8 98.7802 153.494C98.6671 155.597 98.7943 156.063 99.6419 156.628C100.094 156.939 100.108 156.939 99.8538 157.249C99.6843 157.447 99.43 157.574 99.1474 157.588C98.8932 157.588 98.6954 157.673 98.6954 157.757C98.6954 158.026 99.3452 158.52 100.009 158.746C100.376 158.873 100.673 159.014 100.673 159.084C100.673 159.141 100.405 159.31 100.08 159.451C99.5571 159.663 98.879 159.72 95.5875 159.79C93.3131 159.847 91.5473 159.946 91.3354 160.044L90.954 160.2L90.8409 156.43C90.7703 154.355 90.7421 144.685 90.7844 134.944C90.8974 106.159 90.8551 87.7355 90.6714 78.3333C90.5725 73.477 90.4313 66.2348 90.3606 62.2396C90.2476 55.4209 90.2194 54.6586 89.7391 50.014C89.2446 45.0306 89.1034 42.1083 89.3011 40.0048C89.4141 38.706 89.2446 37.8731 88.7502 37.2943L88.4253 36.9272L88.3264 41.5013C88.1992 47.3882 88.4535 62.409 88.8067 70.837C89.2022 80.0415 89.287 87.6508 89.0892 97.2505C88.8491 108.389 88.8491 108.869 89.061 112.427C89.3294 116.93 89.3718 151.63 89.1175 154.708C88.9056 157.291 88.4394 161.075 88.1992 162.261L88.0156 163.108L87.394 163.221C86.165 163.447 84.4839 163.235 82.5344 162.614C80.7262 162.049 80.698 162.035 78.7909 162.077C77.0392 162.105 76.8131 162.077 76.2763 161.795C75.9373 161.626 75.6689 161.4 75.6689 161.301C75.6689 161.202 75.8808 160.073 76.1492 158.802C78.0139 149.908 78.8332 141.678 79.8362 122.097C80.5285 108.431 80.7827 104.86 82.5203 83.8391C84.3568 61.6749 84.8653 53.501 85.0772 41.8683L85.1761 36.8143L84.8088 36.9837C84.0177 37.3508 83.933 37.6472 83.9189 40.4283C83.9189 42.6165 83.8624 43.2659 83.5092 45.1576C83.1278 47.1623 83.0995 47.6141 83.0854 50.5928C83.0854 53.8398 83.0854 53.8398 82.704 54.5033L82.3367 55.1668L82.6051 55.6892C82.8452 56.1692 82.8452 56.2256 82.6333 56.3809C82.4497 56.5221 82.4356 56.6774 82.5344 57.3832C82.6898 58.4844 82.6475 58.7103 82.2237 59.1479L81.8705 59.515L82.3084 59.8679L82.7463 60.2067L82.379 61.1526C81.9835 62.1973 81.9411 62.7619 82.1954 63.4537C82.3225 63.8349 82.2943 64.1313 81.9552 65.4019C81.5456 66.9266 81.5456 67.1383 81.9694 68.2395C82.0117 68.3383 81.8564 68.6489 81.6162 68.9171C81.3761 69.1853 81.1783 69.4536 81.1783 69.4959C81.1783 69.5524 81.3337 69.8065 81.5173 70.0465C82.1106 70.837 82.1106 71.077 81.5032 71.3735C80.8392 71.6841 80.7403 72.1217 81.2207 72.6017C81.5314 72.9123 81.5456 72.9688 81.3337 73.1664C81.1783 73.3217 81.0794 73.7452 81.037 74.4228L80.9664 75.4393L80.4719 75.5946C79.7656 75.8205 79.7797 76.131 80.5285 76.5687C80.8675 76.7663 81.1924 77.0345 81.2348 77.1475C81.2772 77.2604 81.1359 77.7263 80.9099 78.1639C80.2318 79.5192 80.1329 79.9427 80.3872 80.4368C80.698 81.0297 80.6697 81.2839 80.26 81.4674C80.0623 81.5521 79.9069 81.7356 79.9069 81.8768C79.9069 82.018 80.0623 82.2438 80.26 82.3709C80.7121 82.6674 80.698 82.865 80.2459 83.4015C79.8786 83.8391 79.8786 83.8532 80.1046 84.4179C80.3166 84.9402 80.3166 85.0532 80.1046 85.8579C79.9634 86.3943 79.9069 86.9731 79.9634 87.3684C80.147 88.7519 80.147 88.6954 79.6808 88.8507L79.2288 88.9919L79.5678 89.6272C79.921 90.3189 80.0199 91.1519 79.7374 91.1377C78.7626 91.1095 78.7061 91.3072 79.4124 92.3377C80.0058 93.1848 80.0058 93.5518 79.4124 93.8624C79.1864 93.9753 78.9604 94.0883 78.9321 94.1024C78.805 94.173 79.3559 94.8365 79.6243 94.9212C80.0623 95.0624 79.8927 95.3306 79.3277 95.4153C78.6496 95.5141 78.5931 96.0506 79.1864 96.7282C79.4266 96.9964 79.6243 97.3211 79.6243 97.4341C79.6243 97.7447 79.1723 97.9705 78.9039 97.8011C78.579 97.5894 78.4942 97.6458 78.4942 98.1258C78.4942 98.4646 78.6355 98.6905 79.0875 99.0999C79.6526 99.6364 79.6667 99.6505 79.4124 99.9328C79.257 100.102 78.9745 100.215 78.6778 100.215C78.2823 100.215 78.2117 100.258 78.2117 100.554C78.2117 100.766 78.3953 101.034 78.7061 101.302C79.3418 101.81 79.4266 102.347 78.8897 102.403C78.692 102.432 78.3529 102.545 78.141 102.657L77.7455 102.855L78.3953 103.392C79.0734 103.956 79.4407 104.592 79.2712 104.888C79.2005 104.987 78.9463 105.015 78.5507 104.959C77.7031 104.846 77.5053 104.959 77.5053 105.509C77.5053 105.961 77.5477 105.989 78.0845 106.102C78.8756 106.257 79.0875 106.582 78.6778 107.02C78.0987 107.641 78.0421 108.05 78.4094 108.94C79.031 110.45 79.0593 110.366 78.0421 110.408C77.2369 110.45 77.1522 110.478 77.1945 110.733C77.2228 110.888 77.4206 111.283 77.6607 111.608C78.1834 112.342 78.1834 112.554 77.6466 112.78C77.4206 112.878 77.2228 113.005 77.2228 113.062C77.2228 113.133 77.5477 113.457 77.9433 113.796C78.4801 114.262 78.6213 114.474 78.5507 114.657C78.4377 114.954 77.9433 115.18 77.4206 115.18C76.8696 115.18 76.9826 115.688 77.6466 116.097C77.9574 116.295 78.2117 116.521 78.2117 116.591C78.2117 116.662 78.0139 117.043 77.7879 117.41C77.2228 118.342 77.2369 118.723 77.8726 119.245C78.5931 119.838 78.4942 120.177 77.6042 120.234L76.912 120.276L77.1663 120.657C77.3641 120.954 77.4347 121.321 77.4347 122.323C77.4347 123.353 77.4912 123.678 77.689 123.89C77.8161 124.045 77.9291 124.299 77.9291 124.469C77.9291 124.906 77.2652 125.626 76.8555 125.626C76.2904 125.626 76.5165 126.459 77.2793 127.165C77.7314 127.589 77.5901 127.899 76.799 128.309C76.4882 128.464 76.2339 128.662 76.2339 128.746C76.2339 128.944 77.2228 129.932 77.4912 130.017C77.7879 130.116 77.4347 130.596 76.7707 131.005C76.1068 131.429 76.0927 131.711 76.7425 132.021C77.1945 132.247 77.2369 132.304 77.1945 132.798C77.1522 133.292 77.1098 133.334 76.4741 133.532C75.8808 133.716 75.8101 133.786 75.8384 134.097C75.8666 134.337 76.0644 134.548 76.4882 134.774C77.0957 135.113 77.4488 135.551 77.2934 135.791C77.2511 135.876 76.9544 135.932 76.6436 135.932C75.9938 135.932 75.5276 136.13 75.5276 136.412C75.5276 136.666 76.2057 137.245 76.7849 137.471C77.025 137.584 77.2228 137.753 77.2228 137.852C77.2228 138.092 76.7142 138.417 76.135 138.544C75.1462 138.741 75.1886 139.377 76.2057 139.899C77.2652 140.435 77.1522 141.297 76.0079 141.297C75.3722 141.297 75.3016 141.621 75.8101 142.2C76.4741 142.948 76.3893 143.202 75.3157 143.555C74.8071 143.725 74.3975 143.894 74.3975 143.922C74.3975 144.205 74.7648 144.544 75.2027 144.685C75.8949 144.911 76.2339 145.221 76.2339 145.602C76.2339 146.012 75.9655 146.238 75.3298 146.336C74.906 146.407 74.8213 146.478 74.8213 146.746C74.8213 147 74.9625 147.141 75.3581 147.325C75.683 147.48 75.8949 147.692 75.9231 147.875C75.9655 148.129 75.8666 148.186 75.4005 148.271C74.8213 148.355 74.3975 148.765 74.3975 149.231C74.3975 149.372 74.6517 149.64 74.9625 149.838C75.7677 150.346 75.7254 150.699 74.8495 150.812C74.4681 150.854 74.0443 150.981 73.903 151.094C73.6629 151.263 73.6487 151.32 73.8324 151.532C73.9454 151.673 74.2844 151.927 74.567 152.11C75.1603 152.492 75.3016 153.014 74.8213 153.014C74.6517 153.014 74.3268 153.113 74.1008 153.24C73.677 153.452 73.677 153.466 73.9172 153.748C74.0584 153.903 74.3833 154.115 74.6376 154.214C75.4711 154.567 75.1744 155.075 74.0584 155.216C73.5499 155.287 73.4086 155.357 73.4792 155.527C73.7759 156.289 74.1149 157.997 74.1149 158.689C74.1149 159.141 74.1008 159.508 74.0725 159.508C74.0443 159.508 73.5922 159.282 73.0413 159.014C70.6963 157.828 68.21 157.263 64.8337 157.15L62.3898 157.066V156.6C62.3898 156.346 62.3191 156.12 62.2344 156.092C62.1214 156.049 62.3333 154.708 62.9266 151.743C63.3928 149.372 64.1697 145.122 64.6359 142.285C65.1021 139.447 65.9638 134.224 66.5571 130.666C68.2241 120.516 68.9869 116.916 70.2442 113.02C71.1907 110.126 71.3178 109.561 71.4308 108.191C71.5297 106.893 71.6286 106.483 72.01 105.664L72.4621 104.69L72.5751 101.218C72.6881 97.3211 72.7023 97.2223 74.1008 90.5448C76.0079 81.4391 78.805 65.6983 79.7656 58.6397C80.7827 51.1716 81.4467 42.7295 81.4608 37.3508V36.1084L81.0511 36.3202C80.3307 36.7014 80.1612 37.3084 80.26 39.2707C80.3589 41.1766 80.3448 41.3319 78.1552 57.6515C77.576 61.9996 76.9685 66.7571 76.799 68.2395C76.6295 69.7218 76.3187 71.6417 76.0927 72.5452C75.0473 76.6957 74.0725 82.0744 72.4904 92.4507C70.5126 105.312 69.8769 108.516 67.8144 115.956C66.3311 121.292 66.2464 121.589 65.9356 123.015C65.54 124.793 64.7772 129.382 63.9437 135.014C62.531 144.628 61.8953 148.158 60.8217 152.52C59.8046 156.67 59.5503 157.447 59.1689 157.503C58.9994 157.531 58.8581 157.602 58.8581 157.673C58.8581 157.884 57.9116 158.11 57.5019 158.011C57.2759 157.955 56.7532 157.659 56.3294 157.362C55.3688 156.642 54.6201 156.388 51.9643 155.837C49.3226 155.301 48.4043 154.976 47.6839 154.299C47.0199 153.649 47.0058 153.423 47.4861 151.673C47.6839 150.967 47.9664 149.654 48.1218 148.751C48.475 146.689 48.8564 145.391 50.0854 141.96C51.7382 137.372 51.823 137.047 52.0773 134.45C52.3033 132.233 52.4163 131.782 53.5888 128.76C54.4223 126.558 54.7472 125.513 55.1993 123.396C56.4565 117.438 58.2224 110.789 60.963 101.698C61.4291 100.145 62.0366 98.0552 62.305 97.0529C62.6582 95.74 62.8983 95.1329 63.1526 94.8647C63.5058 94.4977 63.5199 94.413 63.4916 93.1424C63.4634 91.8295 63.4634 91.7871 64.2545 89.7684C67.3624 81.7215 67.6449 80.7898 68.8739 74.3099C69.9475 68.7053 70.3572 67.1242 71.3743 64.7101C72.0524 63.0866 72.3632 62.0984 72.7023 60.4749C72.9424 59.3032 73.6487 56.3103 74.2703 53.7974C74.8778 51.2846 75.6124 48.1364 75.8949 46.8094C76.9685 41.6424 77.7737 38.5084 78.4518 36.7437C78.579 36.4049 77.9856 36.5179 77.5053 36.9131C76.8555 37.4637 76.4176 38.4096 74.7365 42.8565C74.341 43.9012 74.1714 44.9035 73.9737 47.2752C73.7476 50.014 73.5499 51.4257 73.338 51.6516C73.2391 51.7645 73.0978 52.0469 73.0554 52.2869C72.9142 52.8939 72.5892 53.3457 72.3067 53.3457C72.1089 53.3457 72.0666 53.501 72.0524 54.3763C72.0524 55.675 71.5156 57.228 70.7104 58.3009C70.1029 59.1197 70.0606 59.3314 70.3713 60.3479C70.4844 60.729 70.5833 61.2796 70.5833 61.562V62.0984H69.8769C69.4107 62.0984 69.1706 62.1549 69.1564 62.2678C69.1141 62.6772 69.2271 62.889 69.6226 63.2278C69.9052 63.4678 70.0323 63.6937 70.0041 63.8631C69.9475 64.1031 69.8063 64.1454 69.0858 64.1878L68.2382 64.2301L68.2947 65.5995C68.323 66.376 68.436 67.1524 68.549 67.3783C68.8033 67.9006 68.8033 67.8865 68.4642 67.8865C68.0828 67.8865 67.4754 68.183 67.4754 68.3806C67.4754 68.4653 67.7014 68.7477 67.9698 69.0159C68.3512 69.383 68.4642 69.6088 68.4642 69.9759C68.4642 70.4418 68.4501 70.4559 68.0122 70.3994C67.7579 70.3571 67.433 70.2865 67.3059 70.2159C67.0798 70.1312 67.0516 70.2018 67.0516 70.71C67.0516 71.3876 67.2493 71.8394 67.546 71.8394C67.8003 71.8394 67.8144 71.9947 67.5884 72.3052C67.433 72.5029 67.32 72.517 66.9244 72.4041C66.656 72.3335 66.3876 72.3052 66.3311 72.3476C66.0768 72.5029 66.2181 73.2088 66.6278 73.8158C67.0516 74.4511 67.1646 74.804 66.9244 74.804C66.8538 74.804 66.543 74.7193 66.2322 74.6064C65.3705 74.2958 65.201 74.677 65.9214 75.3264C66.5854 75.9193 66.4865 76.1875 65.6106 76.244L64.8619 76.2863L64.8196 76.964C64.7913 77.4581 64.9043 78.0228 65.2151 78.9122C65.4553 79.6039 65.6106 80.2392 65.5683 80.3098C65.4553 80.4933 64.3816 80.7615 64.0708 80.6909C63.5623 80.5498 63.7742 81.1286 64.3675 81.5239C64.8337 81.8344 64.9326 81.9756 64.9326 82.3709C64.9326 82.9215 64.6924 83.0909 63.7318 83.232C62.9831 83.3309 62.9831 83.4862 63.6753 83.9379C64.3675 84.4038 64.5088 84.5308 64.5088 84.7567C64.5088 84.912 64.3251 84.9685 63.8024 84.9685C63.2091 84.9685 63.0961 85.0108 63.0961 85.2367C63.0961 85.3779 63.2939 85.7308 63.5199 86.0273C63.9578 86.5779 64.0143 86.7614 63.8307 87.0437C63.7601 87.1708 63.5764 87.1708 63.1243 87.0437C62.4745 86.8743 62.079 87.0014 61.9942 87.4108C61.966 87.5378 62.2061 87.919 62.5169 88.2578C62.8418 88.5966 63.0961 89.006 63.0961 89.1613C63.0961 89.5143 62.5593 89.7684 61.8247 89.7684C61.5139 89.7684 61.2596 89.8248 61.2596 89.9095C61.2596 90.2342 61.5987 90.7283 61.966 90.9542L62.3756 91.1942L61.8529 91.6742C61.3303 92.1401 61.3303 92.1542 61.3303 93.3259V94.4977L60.5957 94.54C59.7057 94.5965 59.6351 94.7941 60.2708 95.5C60.8358 96.1494 60.7228 96.347 59.847 96.2906C59.2113 96.2341 59.1406 96.2623 59.1406 96.5306C59.1406 96.7 59.296 97.0811 59.4938 97.3917C59.6916 97.7023 59.847 98.0835 59.847 98.2388C59.847 98.4788 59.7481 98.5211 59.2819 98.5211C58.7874 98.5211 58.7168 98.5635 58.7168 98.8599C58.7168 99.0434 58.9146 99.4246 59.1406 99.7211C59.6774 100.399 59.7057 101.006 59.1971 101.232C58.9287 101.359 58.7309 101.359 58.4343 101.246C57.6856 100.963 57.6432 101.57 58.3637 102.248C58.6321 102.516 58.8581 102.841 58.8581 102.996C58.8581 103.307 58.3354 103.603 57.7845 103.603C57.4454 103.603 57.4313 103.646 57.516 104.069C57.5726 104.309 57.6291 104.62 57.6714 104.747C57.7845 105.142 57.3748 105.495 56.8238 105.481C56.3859 105.467 56.3153 105.509 56.3153 105.792C56.3153 106.003 56.4848 106.257 56.7956 106.497C57.3183 106.893 57.516 107.457 57.2194 107.711C57.064 107.839 56.8521 107.824 56.3718 107.697C55.8208 107.542 55.7078 107.542 55.5101 107.74C55.2982 107.951 55.3405 108.022 56.0186 108.657C56.6261 109.236 56.7532 109.434 56.7108 109.758C56.6684 110.168 56.6684 110.168 55.5666 110.21L54.4506 110.253L55.0297 110.662C55.4959 111.001 55.6089 111.17 55.6089 111.523C55.6089 111.89 55.5666 111.947 55.3688 111.862C54.7472 111.594 54.4788 111.608 54.4788 111.904C54.4788 112.243 54.6766 112.413 55.3688 112.624C55.8067 112.78 55.8915 112.864 55.8915 113.189C55.8915 113.881 55.4818 114.093 54.4082 113.98C53.7301 113.909 53.4899 113.937 53.4899 114.05C53.4899 114.248 54.3799 115.151 54.8885 115.476C55.4394 115.829 55.1428 116.027 54.0409 116.027C53.3487 116.027 53.0661 116.083 53.0661 116.196C53.0661 116.492 53.2357 116.662 53.8714 117.071C54.3234 117.339 54.4788 117.537 54.4788 117.791C54.4788 118.116 54.4364 118.144 53.7725 118.144C53.1509 118.144 53.0661 118.172 53.0661 118.441C53.0661 118.61 53.2498 118.963 53.4899 119.231C53.9279 119.725 53.9844 119.923 53.7866 120.248C53.7018 120.375 53.5323 120.417 53.2639 120.346C52.4304 120.135 52.1479 120.177 52.1055 120.488C52.0773 120.714 52.2044 120.883 52.5576 121.109C53.0379 121.405 53.4899 121.899 53.4899 122.125C53.4899 122.196 53.0803 122.238 52.5717 122.238C51.8654 122.238 51.6535 122.281 51.6535 122.436C51.6535 122.704 51.9925 123.029 52.5293 123.311C52.8966 123.495 52.939 123.579 52.8542 123.975C52.6988 124.68 52.5152 124.822 51.8654 124.737C51.5546 124.695 51.1873 124.624 51.0601 124.568C50.8482 124.483 50.8059 124.539 50.8059 124.836C50.8059 125.231 51.0036 125.457 51.7947 125.965C52.1762 126.205 52.2892 126.36 52.2892 126.685C52.2892 127.151 52.1479 127.179 51.046 126.967L50.5092 126.855L50.5516 127.335C50.5798 127.716 50.707 127.885 51.1166 128.153C51.7806 128.577 51.8654 129.071 51.272 128.916C50.5798 128.732 50.043 128.789 49.9865 129.029C49.9724 129.156 50.1702 129.523 50.4527 129.847C50.7211 130.186 50.9471 130.567 50.9471 130.723C50.9471 130.963 50.8341 130.991 50.0289 130.991C49.2095 130.991 49.1107 131.019 49.1107 131.273C49.1107 131.457 49.2943 131.64 49.6475 131.796C50.043 131.993 50.1843 132.149 50.2125 132.445C50.2549 132.826 50.2408 132.826 49.478 132.826C49.04 132.826 48.6869 132.883 48.6869 132.953C48.6869 133.306 48.9129 133.574 49.4497 133.843C50.0854 134.167 50.2408 134.323 50.2408 134.69C50.2408 134.916 50.0995 134.944 49.1107 134.944C48.0935 134.944 47.9805 134.972 47.9805 135.212C47.9805 135.367 48.2348 135.791 48.5456 136.144C49.1248 136.807 49.5345 137.485 49.5345 137.767C49.5345 137.852 49.0965 137.908 48.4043 137.908C47.3872 137.908 47.2742 137.937 47.2742 138.177C47.2742 138.445 47.8816 139.038 48.1642 139.038C48.4184 139.038 48.8281 139.49 48.8281 139.758C48.8281 139.899 48.6727 140.125 48.4891 140.238C48.2066 140.421 48.037 140.435 47.5991 140.322C46.7656 140.082 46.5679 140.125 46.5679 140.52C46.5679 140.732 46.7091 140.958 46.9351 141.113C47.585 141.551 48.1218 142.115 48.1218 142.341C48.1218 142.525 47.9523 142.567 47.2318 142.567C45.9604 142.567 45.8474 142.751 46.6526 143.569C47.0905 144.021 47.2883 144.318 47.2318 144.459C47.0905 144.826 46.695 144.896 46.2571 144.642C46.0169 144.515 45.6779 144.402 45.4801 144.402C44.9292 144.402 45.0987 144.967 45.7485 145.32C46.1299 145.518 46.2853 145.701 46.2853 145.913C46.2853 146.209 46.2147 146.238 45.579 146.238C45.1976 146.238 44.8726 146.266 44.8726 146.308C44.8726 146.351 45.0987 146.704 45.3671 147.099C45.6355 147.494 45.8615 147.889 45.8615 147.988C45.8615 148.073 45.9039 148.285 45.9463 148.454C46.031 148.751 45.9887 148.779 45.5507 148.779C45.2823 148.779 44.6607 148.581 44.1663 148.341C43.2481 147.875 41.5105 146.365 41.1008 145.659C40.9172 145.362 40.6488 145.193 40.0837 145.024C39.2361 144.784 38.558 144.346 37.0323 143.118C36.0293 142.313 35.0263 141.72 34.6449 141.72C34.207 141.72 34.2776 141.367 35.1111 139.701C36.1282 137.64 37.103 136.031 38.3179 134.421C39.0101 133.504 39.222 133.123 39.222 132.756C39.222 131.753 39.7588 130.045 40.3804 128.986C43.9403 123.113 46.6526 116.888 52.2185 101.839C52.8542 100.13 54.1256 96.8835 55.0439 94.6388C56.6402 90.7001 57.6714 88.0461 59.4232 83.2038C61.2455 78.2204 65.1021 68.1124 68.2241 60.1926C69.1423 57.835 69.665 56.2821 69.9334 55.0962C70.3431 53.2186 71.558 48.9693 73.1119 43.9718C74.016 41.0636 74.1149 40.6119 74.1149 39.5954L74.1008 38.4519L73.6911 38.9037C73.2673 39.3696 73.0413 40.0189 72.6316 41.9813C72.448 42.8001 72.1089 43.6471 71.3602 45.0871C70.1312 47.4588 70.0747 47.6141 69.8063 49.6611C69.5944 51.3128 69.4107 51.7645 68.8174 52.1598C68.2947 52.4986 67.7155 54.1927 66.4159 59.2044C66.1333 60.2914 65.7095 61.8161 65.4694 62.5925C64.65 65.2607 61.5563 73.237 60.4685 75.4675C59.0276 78.4322 58.957 78.6016 58.4343 80.4651C57.6008 83.4015 56.951 85.2649 55.0015 90.3331C54.4223 91.8436 53.6171 94.0318 53.2074 95.2035C51.1449 101.203 50.5798 102.672 48.5173 107.627C42.1038 123.015 37.668 132.247 33.7691 138.36C33.0062 139.546 33.0062 139.546 32.1586 139.73C30.9861 139.97 30.8731 139.899 28.1749 137.174C26.0135 135 25.5897 134.506 25.1518 133.589C24.6715 132.629 24.6291 132.431 24.615 131.316C24.6008 130.102 24.615 130.073 24.9822 129.89C25.1941 129.791 25.6462 129.382 25.9711 128.972C26.3102 128.577 26.8752 127.956 27.2284 127.603C27.6804 127.151 27.9206 126.77 28.0619 126.262C28.2173 125.725 28.4715 125.344 29.1496 124.638C29.8418 123.918 30.2374 123.311 31.0002 121.815C31.5229 120.77 32.8649 118.469 33.9668 116.704C36.1141 113.288 37.2442 111.227 37.9506 109.547C38.1907 108.968 38.6145 108.234 38.9253 107.895C39.6881 107.076 40.225 105.961 40.7759 104.027C41.3127 102.149 41.7365 101.246 42.4711 100.356C43.3611 99.2693 43.4741 99.0293 43.6012 97.7447C43.7425 96.347 44.0392 95.6412 45.579 92.9448C46.1158 92.013 47.1612 89.9519 47.9099 88.3566C51.9643 79.7874 55.3405 72.39 58.4484 65.2748C59.3243 63.2561 60.6098 60.4891 61.302 59.1338C63.6612 54.5174 64.8619 51.7363 68.0828 43.4495C68.9728 41.1624 70.0323 38.6355 70.4279 37.8308C71.1766 36.3061 71.3178 35.5579 70.9647 35.0779C70.781 34.8379 70.7386 34.8661 70.3148 35.4308C69.6791 36.3202 68.6196 38.4096 67.6166 40.8519C66.6843 43.0824 65.7802 44.9741 65.3422 45.5953C65.201 45.7929 65.0456 46.2447 64.9891 46.5835C64.6642 48.8564 64.0426 50.4658 61.8671 54.7574C61.0195 56.4233 60.1719 58.2868 59.9882 58.8797C59.7904 59.4867 59.5644 59.9808 59.4797 59.9808C59.3949 59.9808 59.2113 60.1361 59.0841 60.3338C58.957 60.5314 58.7168 60.6867 58.5614 60.6867C58.3354 60.6867 58.293 60.7432 58.3637 60.9267C58.4202 61.0679 58.4908 61.3784 58.5332 61.6184C58.6038 62.0278 58.5614 62.0984 58.0952 62.3102C57.4313 62.6349 57.1064 63.1855 56.6826 64.7666C56.2446 66.3901 55.9197 67.0254 55.3547 67.3924C54.9309 67.6607 54.9167 67.7171 54.9026 68.6347V69.6088L54.3799 69.5524C53.9279 69.51 53.8431 69.5524 53.8007 69.8065C53.7725 69.9759 53.8572 70.3571 53.9702 70.6394C54.0974 70.9359 54.1963 71.2888 54.1963 71.43C54.1963 71.7688 53.6877 71.9806 52.9107 71.9806C52.2185 71.9806 52.162 72.3052 52.7836 72.8982C53.0096 73.1241 53.2074 73.4064 53.2074 73.5193C53.2074 73.6464 52.8825 73.9287 52.4869 74.1687C51.2297 74.917 50.6505 76.004 50.6363 77.6557C50.6363 78.5451 50.6222 78.6016 50.2408 78.7569C49.93 78.8839 49.7746 78.8839 49.5345 78.7569C49.2802 78.6157 49.1954 78.6298 49.0965 78.771C49.0259 78.8839 48.9976 79.0251 49.0259 79.1098C49.0541 79.1804 49.153 79.491 49.2661 79.7733C49.3932 80.1545 49.4073 80.4227 49.3084 80.6909C49.1954 81.0439 49.0965 81.0862 48.4326 81.1286C47.5567 81.185 47.4578 81.4391 48.1218 82.0744C48.6304 82.5544 48.6586 82.8509 48.2207 82.8509C47.6697 82.8509 47.3166 83.4015 46.8786 84.9685C46.2853 87.1425 45.9463 87.6508 45.1693 87.6508C44.7879 87.6508 44.6607 88.1449 44.9292 88.5684C45.0563 88.7519 45.1552 89.0625 45.1552 89.2601C45.1552 89.5425 45.0563 89.6413 44.6184 89.7542C44.3358 89.839 44.0109 89.9095 43.8979 89.9095C43.7425 89.9095 43.7284 90.0507 43.8131 90.5731C43.9968 91.8154 43.9685 92.1965 43.7001 92.366C43.4882 92.493 43.3893 92.4507 43.1209 92.126C42.7678 91.6883 42.457 91.646 42.1744 91.9707C42.0191 92.1542 42.0332 92.2812 42.3016 92.7754C42.8384 93.7777 42.7254 94.0036 41.8778 93.6506C41.6659 93.5659 41.6235 93.6224 41.6235 94.0459C41.6235 94.4553 41.7224 94.6247 42.1321 94.9635C42.9797 95.6694 42.6265 95.8247 40.9313 95.4718C40.4934 95.3871 40.4651 95.4012 40.564 95.7118C40.8042 96.4741 40.9172 96.6576 41.2703 96.94C41.4822 97.1094 41.6094 97.307 41.5529 97.3917C41.5105 97.4623 40.9878 97.5329 40.4086 97.5329C39.3915 97.5329 39.3491 97.547 39.3915 97.8435C39.4197 98.0694 39.6034 98.2246 39.9989 98.3799C40.8324 98.6905 40.9172 98.7752 40.9172 99.2693C40.9172 100.06 40.7477 100.173 39.9707 99.947C39.0101 99.6787 38.7417 99.6787 38.6852 99.9752C38.6569 100.13 38.8971 100.483 39.3491 100.921C40.1119 101.655 40.2108 101.909 39.8435 102.206C39.674 102.347 39.4904 102.347 38.8971 102.206C37.6256 101.909 37.5974 101.923 37.6256 102.474C37.6398 102.799 37.7528 103.039 37.9788 103.208C38.8971 103.886 39.0807 104.069 39.0807 104.253C39.0807 104.521 38.3744 104.507 37.4703 104.239C37.0323 104.097 36.7215 104.069 36.6368 104.154C36.3684 104.422 36.6792 104.944 37.3149 105.326C37.7387 105.58 37.9506 105.806 37.9506 106.003C37.9506 106.399 37.5126 106.37 37.103 105.933C36.7074 105.509 36.1141 105.453 36.1141 105.848C36.1141 105.989 36.213 106.342 36.326 106.61C36.6085 107.288 36.6085 108.177 36.3401 108.079C35.8881 107.895 35.1111 107.81 34.7721 107.895C34.2352 108.036 34.3059 108.502 34.9133 108.742C35.323 108.926 35.4078 109.024 35.4078 109.377C35.4078 109.886 35.2241 109.928 34.6308 109.533C34.0516 109.151 33.9951 109.166 33.9951 109.744C33.9951 110.408 34.3059 110.987 34.7721 111.198C35.0828 111.34 35.1252 111.41 34.984 111.58C34.7297 111.876 34.4471 111.848 33.9103 111.438C33.656 111.241 33.317 111.086 33.1616 111.086C32.9215 111.086 32.8649 111.17 32.8649 111.551C32.8649 111.806 32.9638 112.356 33.091 112.765C33.204 113.175 33.2746 113.556 33.2322 113.598C33.1899 113.641 32.9921 113.598 32.7943 113.514C32.3705 113.316 32.2858 113.316 32.0456 113.457C31.8196 113.613 32.1869 114.587 32.6107 114.911C32.9215 115.151 32.8508 115.462 32.4977 115.462C32.3846 115.462 32.1021 115.363 31.8761 115.25C31.4947 115.052 31.4523 115.052 31.3251 115.292C31.2263 115.476 31.2686 115.716 31.4947 116.154C32.0173 117.17 31.3534 117.678 30.534 116.874C30.2798 116.62 29.9831 116.45 29.8842 116.478C29.7853 116.507 29.7006 116.93 29.6582 117.594C29.6017 118.469 29.6441 118.709 29.8418 118.907C30.0255 119.09 30.0396 119.189 29.9125 119.316C29.7853 119.443 29.6299 119.415 29.2626 119.217C28.9942 119.062 28.7258 118.977 28.6834 119.019C28.6411 119.076 28.6693 119.344 28.7541 119.626C28.9236 120.276 28.8388 120.502 28.3303 120.77C27.8641 121.01 27.8641 120.996 28.0901 121.631C28.3161 122.266 28.0901 122.521 27.5816 122.182C27.3838 122.055 27.1295 121.956 27.0024 121.956C26.6633 121.956 26.734 122.831 27.1295 123.41C27.3697 123.763 27.4262 123.946 27.3132 124.059C27.0306 124.342 26.7057 124.229 26.0276 123.636C25.18 122.888 25.0388 123.156 25.6462 124.412C26.4373 126.05 26.0559 126.544 24.9964 125.259C24.728 124.92 24.4454 124.638 24.3748 124.638C24.177 124.638 24.2335 125.372 24.4596 125.768C24.6432 126.106 24.7421 126.756 24.6008 126.756C24.5726 126.756 24.3889 126.685 24.1912 126.6C23.8097 126.417 23.6543 126.12 23.3435 124.808C23.1599 124.102 22.9621 123.735 22.3971 123.071C22.0015 122.619 20.9279 121.208 20.0096 119.951L18.3568 117.65L18.6817 116.69C19.2186 115.109 19.7977 114.248 20.9138 113.358C22.3406 112.229 22.9197 111.608 23.1175 110.987C23.4142 110.027 23.8804 109.462 24.5019 109.278C25.2083 109.067 25.9852 108.206 27.0589 106.469C28.8247 103.603 30.0114 101.966 32.2434 99.2976C35.2241 95.74 35.8457 94.893 37.8093 91.7871C40.2108 87.9896 41.0302 86.7896 41.6941 86.0979C42.0332 85.7449 42.8243 84.5732 43.4741 83.4862C44.6607 81.4674 46.1441 79.1804 47.2177 77.7263C47.5426 77.2887 48.2207 76.1452 48.701 75.1852C49.704 73.2088 52.0914 68.903 54.9026 64.0043C58.4343 57.835 60.4685 54.0374 62.1355 50.4516C63.2091 48.1788 64.9326 43.9859 64.9326 43.7036C64.9184 43.6047 64.5935 43.9012 64.1839 44.3388C63.4351 45.1576 63.3363 45.3271 61.8106 48.4611C61.1042 49.9434 60.7652 50.4658 60.0447 51.1999C59.3101 51.9622 59.0982 52.301 58.7874 53.1904C58.2365 54.7574 55.948 59.3456 54.6625 61.4632C54.0409 62.4655 52.5576 64.8795 51.3709 66.8277C50.1702 68.7618 48.8988 71.0488 48.5315 71.8817C47.811 73.5193 47.3024 74.3099 46.8645 74.4511C46.7091 74.4934 46.5679 74.7193 46.5113 74.9593C46.3983 75.5805 45.7909 76.724 45.1411 77.5992C44.463 78.4886 43.912 79.5474 43.7849 80.1968C43.7284 80.4792 43.4035 80.9874 42.9232 81.5097C42.4852 81.9756 41.6659 83.0909 41.0867 83.9803C38.9253 87.312 38.4591 87.9613 37.6256 88.7943C36.9476 89.486 36.6368 89.9519 36.1141 91.0813C34.7297 94.1306 32.9497 96.7 30.4493 99.2834C29.0649 100.738 28.2314 101.768 26.6633 104.027C23.9227 107.994 22.3406 110.013 20.5747 111.777C18.4275 113.937 16.8594 114.883 15.0794 115.123L14.3166 115.222L14.3872 114.587C14.4579 113.98 14.4437 113.937 13.808 113.415C13.4407 113.104 12.9039 112.568 12.6073 112.215C11.9998 111.495 10.9968 109.49 10.5448 108.093L10.234 107.161L10.8979 106.116C12.2541 104.041 14.7404 101.401 18.3144 98.3093C20.716 96.22 23.2588 93.7212 23.2588 93.4389C23.2588 93.3118 23.3577 93.0859 23.4707 92.9306C23.5837 92.7895 23.6826 92.4648 23.6826 92.2389C23.6826 91.9001 23.8521 91.6319 24.4031 91.1095C25.6179 89.9237 28.4433 86.7049 30.7318 83.8956C34.6449 79.1098 36.8911 76.4557 38.4874 74.7617C39.5186 73.6464 40.4227 72.5029 41.1432 71.3735C43.022 68.4371 45.7768 64.3431 49.3226 59.2044C55.3688 50.4516 58.2789 45.9765 60.8641 41.473C62.5593 38.5366 64.9891 33.8779 64.8902 33.765C64.7348 33.6097 64.085 33.8779 63.6188 34.2873C63.0961 34.7391 62.8418 35.2473 62.3756 36.7861C61.966 38.1696 61.7258 38.5084 60.4544 39.539C58.5897 41.0495 58.4202 41.2472 58.4484 42.1083C58.4767 42.7859 58.406 42.9412 57.7703 43.9012C57.3748 44.48 56.725 45.5953 56.3153 46.3859C55.4535 48.1082 54.5918 49.1246 53.7018 49.4917L53.0661 49.7458V50.6916V51.6375L52.4587 52.0045C52.1055 52.2022 51.6252 52.3575 51.3286 52.3575C50.7494 52.3575 50.6928 52.4986 51.0178 53.0633C51.1308 53.261 51.2155 53.5857 51.2297 53.7833C51.2297 54.108 51.159 54.1786 50.7494 54.2492C50.1702 54.3621 49.9724 54.5739 49.3508 55.8303C48.8423 56.8327 48.2913 57.4397 47.8816 57.4397C47.7404 57.4397 47.698 57.5244 47.7686 57.6797C47.8251 57.8209 47.8958 58.1456 47.9381 58.3856C48.0088 58.8232 47.9805 58.8656 47.3731 59.1197C46.6102 59.4444 46.3842 59.8114 46.4548 60.5596L46.5113 61.1102H45.7768H45.0422L45.1128 61.7031C45.2117 62.649 44.802 63.1713 43.7425 63.4678L42.8949 63.6937V64.5831C42.8949 65.5572 42.6548 65.8819 42.1603 65.6136C41.9343 65.5007 41.9202 65.5289 42.0049 65.9101C42.0756 66.3054 42.0049 66.4183 41.2138 67.1524C40.3521 67.9571 40.3521 67.9571 40.3521 68.7336V69.51L39.6034 69.863C38.9253 70.1877 38.8547 70.2582 38.7558 70.8512C38.5863 71.6841 38.4874 71.797 37.7387 71.91C37.0323 72.0088 36.8204 72.2629 36.8204 72.997C36.8204 73.7452 36.6368 73.9146 36.0858 73.7029C35.6762 73.5476 35.5914 73.5617 35.436 73.7734C35.3371 73.9146 35.2806 74.1264 35.323 74.2393C35.3512 74.3523 35.4501 74.6487 35.5208 74.8887L35.662 75.3405L34.4048 75.8628C33.7126 76.1452 33.1192 76.4416 33.0627 76.5122C33.0203 76.5828 33.1334 76.9216 33.3029 77.2745C33.6984 78.051 33.5713 78.2486 32.8367 78.0228C31.9185 77.7404 31.4947 78.1781 32.0032 78.8839C32.1727 79.1098 32.2999 79.4204 32.2999 79.5615C32.2999 80.2533 31.424 80.3945 30.9437 79.7733C30.7742 79.5615 30.5905 79.4345 30.5482 79.4768C30.4917 79.5192 30.3928 79.9568 30.308 80.4368C30.1385 81.3968 29.969 81.4815 29.192 81.0862C28.8388 80.9027 28.7682 80.9027 28.7682 81.058C28.7682 81.3968 29.192 82.4838 29.3615 82.5827C29.4887 82.6674 29.4887 82.7379 29.3474 82.9074C29.192 83.0909 29.1214 83.0909 28.74 82.8509C28.2314 82.5403 27.9206 82.625 27.9206 83.0626C27.9206 83.2462 27.6946 83.6697 27.412 84.0085C26.847 84.6579 26.5079 85.3496 26.5079 85.8014C26.5079 86.1402 26.0559 86.3096 25.6745 86.112C25.5191 86.0273 25.2365 85.9567 25.0388 85.9567C24.7562 85.9567 24.6715 86.0273 24.6715 86.2673C24.6856 86.4508 24.7703 86.7473 24.8834 86.9449C25.3213 87.7072 24.9399 88.3002 24.2618 87.9472C24.1064 87.8625 23.8097 87.7919 23.612 87.7919C23.3012 87.7919 23.2588 87.8484 23.3153 88.0743C23.3577 88.2296 23.4424 88.4837 23.4848 88.6531C23.725 89.5001 23.061 89.966 22.609 89.2743C22.3264 88.8507 22.1852 88.8366 21.9874 89.2178C21.8602 89.4296 21.8744 89.6554 22.0439 90.1495C22.171 90.5166 22.2699 90.9542 22.2699 91.1377C22.2699 91.4483 22.2275 91.4624 21.2952 91.4624C20.7442 91.4624 20.2639 91.533 20.2215 91.6036C20.165 91.6883 20.2922 91.9424 20.5041 92.1965C21.1963 93.0154 20.6453 93.6789 19.8684 92.9448C19.6424 92.733 19.3598 92.5918 19.2044 92.6201C18.9925 92.6624 18.9501 92.8036 18.9643 93.4812C18.9784 94.3565 18.8371 94.4977 18.3851 94.0036C18.0884 93.6647 17.6364 93.6365 17.5233 93.933C17.4668 94.0459 17.5375 94.3988 17.6646 94.7094C17.7918 95.02 17.8906 95.3165 17.8906 95.3588C17.8906 95.4435 17.5233 95.3871 16.7181 95.1894C16.3508 95.1047 16.3367 95.1188 16.3367 95.6694C16.3367 95.98 16.4356 96.3329 16.5486 96.4459C16.7323 96.6294 16.7323 96.6859 16.5345 96.8411C16.3508 96.9823 16.2378 96.9823 15.8705 96.827C15.6162 96.7282 15.2348 96.6435 14.9947 96.6294C14.6274 96.6153 14.5709 96.6576 14.6274 96.9682C14.6415 97.1658 14.7828 97.4764 14.924 97.6882C15.0653 97.8858 15.2348 98.2246 15.2913 98.4364L15.3761 98.8176L14.8393 98.5776C14.5285 98.4505 14.1188 98.3093 13.8928 98.267C13.5255 98.2105 13.5114 98.2246 13.5114 98.8599C13.5114 99.3964 13.469 99.5093 13.2571 99.5093C13.1158 99.5093 12.9039 99.354 12.805 99.1564C12.5931 98.7611 12.2823 98.747 12.0422 99.114C11.9292 99.2976 11.9574 99.5234 12.1411 100.032C12.579 101.246 12.3106 101.81 11.7031 100.963C11.5195 100.709 11.3641 100.625 11.1805 100.681C10.9827 100.766 10.9544 100.879 11.0251 101.316C11.2228 102.389 11.1946 102.672 10.9262 102.728C10.3187 102.855 9.78191 101.966 9.57001 100.483C9.44287 99.594 9.20272 98.987 7.94544 96.4035C7.12609 94.7377 6.22198 92.9448 5.92532 92.4224L5.38851 91.4766L6.09484 90.7566C7.02721 89.7825 8.08671 89.0625 10.5306 87.6649C16.4921 84.2626 26.296 76.4416 35.7609 67.5477C41.4257 62.2114 44.6466 58.9644 45.0563 58.1315C45.6214 57.0162 46.6526 55.6892 47.9099 54.4751C48.5173 53.8963 49.3226 52.9504 49.7181 52.3575C50.1137 51.7787 51.2297 50.2822 52.2185 49.0399C53.1933 47.7976 54.2952 46.3717 54.6483 45.8635C55.2558 44.9882 56.5978 42.7154 56.5978 42.5459C56.5978 42.5036 56.2588 42.6448 55.8632 42.8424C54.8037 43.3789 53.2215 45.0306 51.5546 47.3458C50.7776 48.4329 48.7575 50.9457 47.0623 52.9222C45.3671 54.8986 43.1633 57.5527 42.1462 58.8091C40.7335 60.5879 40.1685 61.1667 39.7164 61.3926C39.3632 61.562 38.6852 62.1549 38.106 62.7902C37.555 63.3972 36.8628 64.0325 36.552 64.1737C36.1423 64.3854 35.7892 64.7525 35.2665 65.5289C34.4613 66.743 33.3594 67.8018 32.0032 68.6771C31.4947 69.0018 30.9861 69.383 30.8731 69.5241C30.7601 69.6512 29.1779 71.0065 27.3555 72.5311C25.5332 74.0417 23.4283 75.9052 22.6796 76.6534C21.7614 77.5851 20.8714 78.3051 19.9249 78.898C18.1732 79.9992 16.9724 80.8603 12.7344 84.0509C7.98782 87.6367 5.38851 89.3448 4.6963 89.3448C4.41377 89.3448 4.25837 89.2319 4.07472 88.8931C3.94758 88.6531 3.6933 88.286 3.50966 88.1025L3.18474 87.7637L3.32601 84.1356C3.4814 80.6062 3.70743 78.4745 4.08885 77.204C4.2725 76.5687 4.28663 76.5687 6.09484 75.6511C7.11197 75.1428 8.8778 74.2958 10.0221 73.7593C12.4942 72.6017 14.0482 71.67 15.0936 70.7241C15.5597 70.3006 16.5486 69.6935 17.6787 69.1147C21.0126 67.4207 24.4737 65.2042 28.6269 62.1125C31.0002 60.3479 39.9707 53.2045 42.2592 51.2422C44.2935 49.5199 47.4013 46.4423 48.7857 44.8047C49.9018 43.4918 52.2892 40.0895 52.1762 39.9766C52.0773 39.8778 50.9471 40.3436 50.5092 40.6683C50.269 40.8519 49.7322 41.5154 49.3084 42.1507C48.5032 43.3365 46.6385 45.1294 40.1402 50.8752C36.2412 54.3198 35.9587 54.5598 35.1252 54.8986C33.8962 55.4209 32.5824 56.3386 31.6218 57.355C30.9155 58.075 30.6329 58.2868 30.3221 58.2868C30.0961 58.2868 29.8701 58.2162 29.8136 58.1315C29.7571 58.0326 29.6582 58.1032 29.5593 58.3009C29.4745 58.4703 29.0649 58.8232 28.6411 59.0632C27.737 59.5997 27.4968 59.882 27.4968 60.4467C27.4968 60.8561 27.4827 60.8561 26.96 60.7996C26.4797 60.729 26.409 60.7573 26.2536 61.1102C26.1406 61.3502 25.7733 61.6608 25.2648 61.929C24.3748 62.409 24.0499 62.7055 23.9086 63.1855C23.7673 63.6231 23.2588 63.609 22.722 63.1572C22.2134 62.7337 21.9874 62.7055 22.0863 63.1008C22.1852 63.4537 21.8885 64.0466 21.5636 64.1454C21.1115 64.2866 20.5747 64.8937 20.5747 65.2748C20.5747 65.6842 20.5041 65.6983 19.8119 65.416C19.4305 65.2466 19.2186 65.2325 19.0208 65.3454C18.6959 65.5289 18.6817 65.5854 18.9501 66.0513C19.2186 66.5172 19.2186 67.0254 18.936 67.1383C18.8089 67.1807 18.4981 67.1101 18.2297 66.983C17.9613 66.856 17.5092 66.7571 17.2408 66.7571H16.7323L16.8311 67.463C16.9018 67.943 16.8735 68.2395 16.7605 68.3806C16.478 68.7195 16.0824 68.6206 15.8423 68.1689C15.4326 67.3783 14.8251 67.7454 14.6839 68.8465C14.6132 69.4818 14.5567 69.5947 14.246 69.6794C13.9634 69.75 13.808 69.6794 13.5679 69.3971C13.3842 69.1853 13.1441 69.0159 13.0311 69.0159C12.8192 69.0159 12.5649 69.6653 12.4942 70.3994L12.4519 70.7382L12.0704 70.4418C11.6043 70.0606 11.4206 70.0606 11.3641 70.4559C11.3217 70.7523 11.124 70.9076 10.1916 71.3029C9.85255 71.4582 9.75366 71.5994 9.69715 72.0511C9.62652 72.5876 9.59827 72.6158 9.14621 72.5876C8.8213 72.5735 8.52464 72.4182 8.15734 72.0653C7.87481 71.7829 7.59227 71.557 7.53577 71.557C7.47926 71.557 7.43688 71.9382 7.43688 72.4182V73.2793L7.02721 73.1805C6.46214 73.0535 6.08072 73.2935 5.74168 73.957C5.332 74.7617 4.99296 74.9028 4.62567 74.437C4.20187 73.9005 4.24425 72.9405 4.75281 71.3876C4.99296 70.6676 5.21899 69.6653 5.27549 69.1571L5.36025 68.2395L7.14022 67.6183C10.7284 66.3901 13.8787 64.7525 18.0602 61.9431C20.7866 60.122 21.7896 59.3456 23.4848 57.7362C25.3495 55.9574 26.3102 55.3503 30.1102 53.5857C32.7661 52.3292 34.0233 51.6657 34.8427 51.0587C35.5914 50.494 36.5944 49.4352 37.0323 48.7576C37.4844 48.0376 38.0071 46.8658 37.9082 46.767C37.8799 46.7388 37.5126 46.9647 37.0888 47.2894C35.7468 48.2917 33.1475 49.8869 28.6693 52.4422C22.3688 56.028 19.4022 58.0609 17.1561 60.3055C16.4921 60.969 16.0683 61.2655 15.4891 61.4632C15.0512 61.6184 14.4296 61.9855 14.0764 62.3102C13.7233 62.6208 12.9322 63.2419 12.3106 63.6796C11.689 64.1172 10.9968 64.6678 10.7708 64.9078C10.5165 65.176 10.2057 65.3454 9.99381 65.3454C9.31573 65.3454 7.64878 65.7689 6.98483 66.0936L6.30674 66.4324L5.9677 65.9242C5.16248 64.7243 5.14835 63.5102 5.89707 62.0984C6.13722 61.6326 6.99895 60.4326 7.80417 59.4444C8.70828 58.315 9.457 57.2138 9.79604 56.508C10.2481 55.5762 10.46 55.2939 11.1663 54.7715C11.6325 54.4186 12.2965 53.7269 12.6496 53.2327C15.6586 49.0117 17.0572 47.3882 18.6676 46.287C20.4758 45.0447 22.7361 44.0141 26.1689 42.8848L28.415 42.1507L33.0062 42.0518C36.9193 41.953 37.7387 41.8965 38.5863 41.6707C42.2168 40.6542 46.2853 38.5507 49.2802 36.1508C50.5092 35.1485 50.4103 35.3743 51.5828 30.8286C52.9814 25.4075 53.6595 23.3323 54.6907 21.2994C55.0156 20.6641 55.0439 20.4523 55.0439 18.7018C55.0439 17.3324 54.9167 15.9348 54.5918 13.6478C54.281 11.4032 54.1398 9.93495 54.1398 8.52321C54.1256 6.68796 54.1539 6.4762 54.5353 5.44563C54.832 4.64095 55.1286 4.13272 55.6372 3.56804L56.3435 2.80569L56.8238 3.15863C57.5302 3.69508 58.7027 4.20331 59.8046 4.42918C60.4261 4.57036 62.0366 4.66919 64.3675 4.71153C68.1817 4.79623 69.2977 4.90918 70.6256 5.36093C71.3885 5.61505 71.5156 5.62917 72.1231 5.43152C73.5781 4.97977 75.132 4.73978 78.918 4.42918C81.9411 4.17508 82.0541 4.14685 82.8028 3.72333C83.1136 3.53979 83.8765 3.2998 84.4981 3.17274C87.8037 2.52335 90.629 2.42453 97.2827 2.73511C102.976 2.98923 103.852 2.97511 107.454 2.45277C110.265 2.04337 112.427 2.05748 114.644 2.52335ZM120.606 33.5532C121.171 33.9203 122.287 35.0497 122.287 35.2614C122.287 35.3179 122.146 35.4167 121.976 35.4873C121.171 35.8402 121.595 36.5602 123.431 37.9013C125.282 39.2566 125.875 39.9766 126.172 41.233C126.468 42.4471 126.553 42.6306 127.034 43.1248L127.401 43.4777L127.782 43.1248C128.206 42.7154 128.432 42.6589 128.545 42.9553C128.587 43.0683 129.054 43.3789 129.59 43.6612C130.876 44.3388 132.373 45.4823 134.93 47.7411C137.671 50.1834 138.363 50.7199 143.265 54.3339C145.525 55.9856 148.789 58.4844 150.512 59.8679C155.033 63.4819 156.615 64.4984 164.243 68.7618C168.82 71.317 170.84 72.517 172.394 73.5617C173.327 74.1829 173.482 74.2393 174.259 74.2393C175.05 74.2393 175.177 74.2817 175.926 74.8746C176.378 75.2134 177.155 75.8063 177.664 76.1734C179.458 77.5004 179.726 78.7851 179.006 82.6532C178.794 83.8109 178.596 84.8414 178.568 84.9544C178.525 85.0955 178.342 85.1238 177.791 85.0532C176.661 84.8979 175.968 84.5873 172.423 82.5685C166.73 79.3357 164.116 77.571 161.799 75.3828C160.839 74.4793 160.486 74.2393 160.161 74.2393C159.921 74.2393 159.44 74.084 159.073 73.8864C158.706 73.6887 158.324 73.5335 158.225 73.5335C158.126 73.5335 158.013 73.4064 157.957 73.2652C157.915 73.1099 157.59 72.757 157.251 72.4747C156.897 72.1923 156.615 71.8394 156.615 71.6982C156.615 71.5147 156.304 71.2747 155.598 70.8935C154.227 70.1735 152.758 69.0724 150.95 67.3783C148.605 65.176 147.517 64.2443 145.229 62.4796C141.57 59.6702 140.539 58.7809 136.908 55.3503C131.582 50.3105 128.884 47.5858 126.822 45.0871C124.01 41.713 123.205 40.5836 122.343 38.8754C121.821 37.859 121.312 37.0543 120.818 36.5461C119.645 35.3179 118.656 33.7509 118.812 33.3556C118.939 33.0026 119.9 33.1156 120.606 33.5532ZM124.265 36.2637C124.561 36.419 125.31 36.9696 125.918 37.4778C126.525 38.0002 127.274 38.5931 127.57 38.7907L128.135 39.1578L127.542 39.2001C126.737 39.2566 125.706 38.6919 124.773 37.6614C124.067 36.8708 123.46 35.9814 123.629 35.9814C123.671 35.9814 123.954 36.1084 124.265 36.2637Z" fill="white" fill-opacity="0.15"/>
</svg>
